<svg width="154" height="37" viewBox="0 0 154 37" fill="none" xmlns="http://www.w3.org/2000/svg">
<path d="M37.8483 0H0V37H37.8483V0Z" fill="#66E4BE"/>
<path d="M32.0563 15.8448C32.8421 14.3969 34.0325 13.1971 35.489 12.3852C37.0235 11.5485 38.7575 11.1247 40.5142 11.1571C42.6727 11.0748 44.797 11.7022 46.548 12.9388C48.1818 14.1868 49.3153 15.9561 49.7507 17.9378H44.407C44.1568 17.1525 43.6541 16.467 42.9737 15.9832C42.2409 15.4923 41.3666 15.2438 40.4788 15.274C39.8369 15.2489 39.1979 15.372 38.6138 15.6335C38.0297 15.895 37.5169 16.2874 37.1169 16.7789C36.2911 17.7821 35.8783 19.2063 35.8783 21.0514C35.8783 22.8965 36.2911 24.3092 37.1169 25.2894C37.5169 25.7809 38.0297 26.1732 38.6138 26.4347C39.1979 26.6962 39.8369 26.8194 40.4788 26.7943C42.4842 26.7943 43.7936 25.9179 44.407 24.165H49.7507C49.2843 26.1243 48.1483 27.8694 46.5303 29.1122C44.7971 30.3754 42.6747 31.0223 40.5142 30.9458C38.7575 30.9781 37.0235 30.5543 35.489 29.7176C34.0325 28.9057 32.8421 27.7059 32.0563 26.2581C31.2412 24.638 30.8174 22.8568 30.8174 21.0514C30.8174 19.2461 31.2412 17.4648 32.0563 15.8448Z" fill="black"/>
<path d="M68.4005 12.1719C69.5698 12.8197 70.513 13.796 71.1078 14.9741C71.7909 16.3587 72.1246 17.8831 72.081 19.4197V30.6229H67.1265V20.0482C67.2097 18.7729 66.7872 17.5154 65.9469 16.5367C65.5368 16.1212 65.0402 15.7966 64.4908 15.5847C63.9413 15.3728 63.3518 15.2787 62.7619 15.3086C62.1641 15.2783 61.5665 15.372 61.0084 15.5837C60.4503 15.7954 59.9443 16.1202 59.5238 16.5367C58.6792 17.5131 58.2561 18.7723 58.3442 20.0482V30.6229H53.3898V5.02213H58.3442V13.844C59.0109 12.9924 59.8875 12.3199 60.8922 11.8894C62.0057 11.4061 63.2129 11.1641 64.4311 11.1802C65.8201 11.1664 67.1886 11.5083 68.4005 12.1719Z" fill="black"/>
<path d="M80.3973 29.7176C78.9084 28.9127 77.6819 27.7136 76.8584 26.2581C75.974 24.6674 75.5288 22.8788 75.5668 21.0687C75.5287 19.2543 75.9869 17.4628 76.8938 15.8794C77.7471 14.4164 79.0041 13.2176 80.5212 12.4198C82.1057 11.6129 83.8659 11.1915 85.6525 11.1915C87.4392 11.1915 89.1994 11.6129 90.7839 12.4198C92.2997 13.2194 93.5562 14.4178 94.4113 15.8794C95.3182 17.4628 95.7764 19.2543 95.7383 21.0687C95.7732 22.8872 95.3023 24.6808 94.3759 26.2581C93.4975 27.7199 92.2241 28.9169 90.6954 29.7176C89.101 30.5481 87.3175 30.9706 85.511 30.9458C83.7263 30.9768 81.9641 30.5536 80.3973 29.7176ZM88.0236 26.0851C88.8328 25.6394 89.4909 24.9719 89.9169 24.165C90.4149 23.2012 90.6582 22.1308 90.6247 21.0514C90.6247 19.2294 90.1351 17.8283 89.156 16.8481C88.6945 16.3727 88.1367 15.9965 87.5183 15.7434C86.8999 15.4903 86.2344 15.3657 85.5641 15.3777C84.9017 15.3662 84.2442 15.4912 83.6345 15.7445C83.0248 15.9979 82.4764 16.3738 82.0252 16.8481C81.0697 17.8283 80.5919 19.2294 80.5919 21.0514C80.5919 22.8735 81.0579 24.2746 81.9898 25.2548C82.4363 25.7349 82.9837 26.1149 83.5946 26.3687C84.2054 26.6225 84.8652 26.7441 85.5287 26.7251C86.4024 26.7219 87.2609 26.5017 88.0236 26.0851Z" fill="black"/>
<path d="M104.314 5.03367V30.6229H99.3657V5.02213L104.314 5.03367Z" fill="black"/>
<path d="M114.158 5.03367V30.6229H109.204V5.02213L114.158 5.03367Z" fill="black"/>
<path d="M118.953 15.8275C119.66 14.4075 120.766 13.2139 122.142 12.3867C123.518 11.5595 125.106 11.1329 126.721 11.1571C128.055 11.1281 129.375 11.4254 130.561 12.022C131.593 12.5497 132.494 13.2939 133.197 14.2015V11.4685H138.187V30.6229H133.197V27.8207C132.512 28.7586 131.609 29.5236 130.561 30.0521C129.364 30.6566 128.032 30.9598 126.686 30.9342C125.091 30.9507 123.524 30.5184 122.174 29.6888C120.788 28.8326 119.673 27.6169 118.953 26.1773C118.14 24.5651 117.735 22.7852 117.774 20.988C117.733 19.1997 118.138 17.4287 118.953 15.8275ZM132.519 18.0243C132.084 17.2302 131.436 16.5672 130.644 16.1069C129.852 15.6466 128.946 15.4065 128.025 15.4123C127.114 15.4037 126.218 15.6395 125.435 16.0939C124.652 16.5484 124.012 17.2041 123.583 17.9897C123.078 18.908 122.828 19.9399 122.858 20.9823C122.831 22.0354 123.08 23.0777 123.583 24.0094C124.02 24.8306 124.679 25.5187 125.488 25.9986C126.253 26.453 127.13 26.6924 128.025 26.6905C128.946 26.6964 129.852 26.4562 130.644 25.9959C131.436 25.5356 132.084 24.8727 132.519 24.0786C132.985 23.1345 133.227 22.0997 133.227 21.0514C133.227 20.0032 132.985 18.9684 132.519 18.0243Z" fill="black"/>
<path d="M150.455 12.0566C151.535 11.4653 152.757 11.1667 153.994 11.1917V16.2772H152.679C151.106 16.2772 149.926 16.6347 149.14 17.3497C148.354 18.0647 147.96 19.3101 147.96 21.086V30.6229H143.012V11.4685H147.96V14.4437C148.573 13.4551 149.431 12.6339 150.455 12.0566Z" fill="black"/>
<path d="M26.8896 19.9271C26.1952 19.0513 25.2808 18.366 24.2354 17.9378C23.1203 17.5218 21.9822 17.1676 20.8263 16.8769V10.4997C21.1541 10.6843 21.4457 10.9245 21.6874 11.209C22.0984 11.703 22.3508 12.3048 22.4129 12.9388H27.7566C27.7233 12.034 27.504 11.1449 27.1119 10.3247C26.7197 9.50452 26.1627 8.76987 25.474 8.16454C24.1483 7.09706 22.5333 6.4299 20.8263 6.24448V3.36151H16.9748V6.24448C15.161 6.4464 13.4502 7.17324 12.0617 8.33178C11.3426 8.93837 10.7709 9.69405 10.3883 10.5439C10.0057 11.3937 9.82176 12.3162 9.84988 13.2443C9.7734 14.5911 10.1733 15.9226 10.9823 17.0153C11.6864 17.9001 12.6131 18.5914 13.6719 19.0218C14.7501 19.4335 15.8531 19.7801 16.9748 20.0597V26.6098C16.4342 26.3714 15.9753 25.9858 15.6531 25.499C15.3309 25.0122 15.1591 24.445 15.1582 23.8652H9.84988C9.83299 24.7808 10.0242 25.6886 10.4098 26.5232C10.7953 27.3578 11.3656 28.0983 12.0794 28.6913C13.4841 29.7986 15.1819 30.4925 16.9748 30.6921V33.6212H20.8263V30.7382C22.0682 30.6009 23.2706 30.2267 24.3652 29.6369C25.505 29.0275 26.4579 28.1318 27.1255 27.0422C27.7429 26.0209 28.067 24.8555 28.0633 23.6692C28.1274 22.3265 27.7125 21.0038 26.8896 19.9271ZM15.6831 14.8761C15.4445 14.6296 15.2589 14.3387 15.1373 14.0208C15.0158 13.7029 14.9607 13.3643 14.9754 13.0252C14.9364 12.2754 15.2037 11.5412 15.7185 10.9841C16.0571 10.6463 16.4738 10.3932 16.9335 10.246V15.7122C16.4783 15.5048 16.0633 15.2219 15.7067 14.8761H15.6831ZM22.1062 25.8948C21.7436 26.2803 21.29 26.5733 20.785 26.7482V21.2186C21.2749 21.4241 21.7272 21.7065 22.1239 22.0547C22.3727 22.292 22.5675 22.578 22.6956 22.894C22.8236 23.2099 22.8821 23.5487 22.867 23.8883C22.8926 24.6246 22.6288 25.3426 22.1298 25.8948H22.1062Z" fill="black"/>
</svg>
