<svg width="38" height="37" viewBox="0 0 38 37" fill="none" xmlns="http://www.w3.org/2000/svg">
<path d="M37.8483 0H0V37H37.8483V0Z" fill="#66E4BE"/>
<path d="M26.8896 19.9271C26.1952 19.0513 25.2808 18.366 24.2354 17.9378C23.1203 17.5218 21.9822 17.1676 20.8263 16.8769V10.4997C21.1541 10.6843 21.4457 10.9245 21.6874 11.209C22.0984 11.703 22.3508 12.3048 22.4129 12.9388H27.7566C27.7233 12.034 27.504 11.1449 27.1119 10.3247C26.7197 9.50451 26.1627 8.76987 25.474 8.16454C24.1483 7.09706 22.5333 6.4299 20.8263 6.24448V3.36151H16.9748V6.24448C15.161 6.4464 13.4502 7.17324 12.0617 8.33178C11.3426 8.93837 10.7709 9.69405 10.3883 10.5439C10.0057 11.3937 9.82176 12.3162 9.84988 13.2443C9.7734 14.5911 10.1733 15.9226 10.9823 17.0153C11.6864 17.9001 12.6131 18.5914 13.6719 19.0218C14.7501 19.4335 15.8531 19.7801 16.9748 20.0597V26.6098C16.4342 26.3714 15.9753 25.9858 15.6531 25.499C15.3309 25.0122 15.1591 24.445 15.1582 23.8652H9.84988C9.83299 24.7808 10.0242 25.6886 10.4098 26.5232C10.7953 27.3578 11.3656 28.0983 12.0794 28.6913C13.4841 29.7986 15.1819 30.4925 16.9748 30.6921V33.6212H20.8263V30.7382C22.0682 30.6009 23.2706 30.2267 24.3652 29.6369C25.505 29.0275 26.4579 28.1318 27.1255 27.0422C27.7429 26.0209 28.067 24.8555 28.0633 23.6692C28.1274 22.3265 27.7125 21.0038 26.8896 19.9271V19.9271ZM15.6831 14.8761C15.4445 14.6296 15.2589 14.3387 15.1373 14.0208C15.0158 13.7029 14.9607 13.3643 14.9754 13.0252C14.9364 12.2754 15.2037 11.5412 15.7185 10.9841C16.0571 10.6463 16.4738 10.3932 16.9335 10.246V15.7122C16.4783 15.5048 16.0633 15.2219 15.7067 14.8761H15.6831ZM22.1062 25.8948C21.7436 26.2803 21.29 26.5733 20.785 26.7482V21.2186C21.2749 21.4241 21.7272 21.7065 22.1239 22.0547C22.3727 22.292 22.5675 22.578 22.6956 22.894C22.8236 23.2099 22.8821 23.5487 22.867 23.8883C22.8926 24.6246 22.6288 25.3426 22.1298 25.8948H22.1062Z" fill="black"/>
</svg>
