<svg xmlns="http://www.w3.org/2000/svg" viewBox="0 0 500 500"><g id="freepik--background-complete--inject-275"><path d="M242.57,126.3s0-.47-.07-1.41,0-2.32-.2-4.14A87.1,87.1,0,0,0,208,57.18,86.52,86.52,0,0,0,171.44,41a86.83,86.83,0,0,0-45.63,167,92.92,92.92,0,0,0,11.61,3.31,88.26,88.26,0,0,0,34,.4A86.85,86.85,0,0,0,208,195.43a87.13,87.13,0,0,0,34.26-63.57c.17-1.82.14-3.21.2-4.14s.07-1.42.07-1.42.06,1.92-.11,5.57a86.22,86.22,0,0,1-2.37,15.77A87.13,87.13,0,0,1,230.51,171a88.15,88.15,0,0,1-22.14,24.9,86.92,86.92,0,0,1-36.8,16.41A87.19,87.19,0,0,1,149,213.55a88.56,88.56,0,0,1-11.74-1.63,91,91,0,0,1-11.7-3.33,87.5,87.5,0,0,1,46-168.25,87.07,87.07,0,0,1,36.8,16.4,88.33,88.33,0,0,1,22.15,24.9A87,87,0,0,1,240.08,105a85.62,85.62,0,0,1,2.38,15.78C242.63,124.39,242.57,126.3,242.57,126.3Z" style="fill:#e0e0e0"></path><path d="M165.84,106.81l25.49,15a7,7,0,0,1-.11,12l-25.78,14.56L139.67,163a7,7,0,0,1-10.36-6.12l.28-29.59.29-29.6a6.94,6.94,0,0,1,10.47-5.91Z" style="fill:#e0e0e0"></path><rect x="230.71" y="120.79" width="237.8" height="172.11" style="fill:#e0e0e0"></rect><rect x="214.99" y="136.51" width="237.8" height="172.11" style="fill:#f5f5f5"></rect></g><g id="freepik--Desk--inject-275"><path d="M462.3,455.67c0,.14-96.45.26-215.4.26s-215.41-.12-215.41-.26,96.42-.27,215.41-.27S462.3,455.52,462.3,455.67Z" style="fill:#263238"></path></g><g id="freepik--Screen--inject-275"><rect x="224.03" y="120.04" width="184.37" height="243.44" transform="translate(74.06 557.67) rotate(-89.93)" style="fill:#fafafa"></rect><path d="M437.82,334.1c0-1.82,0-72.9,0-184.37l.22.22-243.42-.26h0l.26-.26c-.09,66.32-.18,129.11-.25,184.36l-.24-.24,243.44.55L194.38,334h-.25v-.24c.07-55.25.14-118,.21-184.36v-.27h.29l243.42.35h.22v.22C438,261.2,437.82,332.28,437.82,334.1Z" style="fill:#263238"></path><path d="M435.76,166.74c0,.14-53.87.2-120.31.11s-120.32-.27-120.32-.41,53.86-.2,120.32-.12S435.76,166.59,435.76,166.74Z" style="fill:#263238"></path><path d="M207.83,158.42a3.71,3.71,0,1,1-3.71-3.54A3.62,3.62,0,0,1,207.83,158.42Z" style="fill:#263238"></path><path d="M218.7,158.43a3.71,3.71,0,1,1-3.7-3.54A3.61,3.61,0,0,1,218.7,158.43Z" style="fill:#263238"></path><path d="M229.57,158.45a3.71,3.71,0,1,1-3.7-3.55A3.62,3.62,0,0,1,229.57,158.45Z" style="fill:#263238"></path><rect x="252.32" y="226.14" width="142.71" height="45.88" rx="20.93" transform="translate(0.31 -0.4) rotate(0.07)" style="fill:#66E4BE"></rect><g style="opacity:0.4"><rect x="252.32" y="226.14" width="142.71" height="45.88" rx="20.93" transform="translate(0.31 -0.4) rotate(0.07)"></rect></g><rect x="241.93" y="226.12" width="142.71" height="45.88" rx="20.93" transform="translate(0.31 -0.39) rotate(0.07)" style="fill:#66E4BE"></rect><path d="M287.11,245.79c0,3.28-2.47,5.32-6.4,5.32h-3v4.06h-3.4V240.43h6.38C284.66,240.44,287.12,242.49,287.11,245.79Zm-3.45,0c0-1.62-1.05-2.57-3.13-2.58h-2.78v5.12h2.78C282.61,248.33,283.66,247.39,283.66,245.79Z" style="fill:#fff"></path><path d="M289.54,240.45H293l0,12h7.39v2.77h-10.8Z" style="fill:#fff"></path><path d="M312.07,252.05h-6.84l-1.31,3.16h-3.5L307,240.47h3.36l6.57,14.74h-3.57ZM311,249.46l-2.33-5.64-2.35,5.64Z" style="fill:#fff"></path><path d="M324.65,250v5.22h-3.41V250l-5.69-9.48h3.62L323.1,247l3.94-6.55h3.35Z" style="fill:#fff"></path><path d="M348.22,245l5.09,3a1.38,1.38,0,0,1,0,2.4l-5.15,2.9-5.16,2.9A1.38,1.38,0,0,1,340.9,255l.07-5.92.06-5.91a1.39,1.39,0,0,1,2.1-1.18Z" style="fill:#fff"></path></g><g id="freepik--Character--inject-275"><path d="M152.49,299.36l45.95,44.81,48.92-51.91,17.27,15.12L229.44,369a35,35,0,0,1-27.32,18h0A35.94,35.94,0,0,1,173.47,377L148.2,352.54Z" style="fill:#a36957"></path><path d="M264,277.48s20.25-12.15,21.76-12.15,23.14-6.67,23.14-6.67l9.27-.14s2.38,3.47-5.19,5.07l-4.77,1.62L302,268l-5.37,2.37,3.73.69a5.43,5.43,0,0,1,4,3.2l3.59,8.36s-.3,9.38-2.12,10.29a4.78,4.78,0,0,1-3.78,0s.15,4.54-.9,5.14-3.33,0-3.33,0-2.12,1-2.88.27-1.21-3.6-1.21-3.6l-1.46-1.36-7.67,3.34a24.75,24.75,0,0,1-9.05,2l-6.32.22-7.88,14.47-18.77-16.06A219.23,219.23,0,0,1,264,277.48Z" style="fill:#a36957"></path><path d="M286.61,281c3,1.67,4.35,3.45,7.79,3.3a52.9,52.9,0,0,0,7-.6,30.48,30.48,0,0,1,5.81-.31c1.29,0,2.85.19,3.41,1.35a2.37,2.37,0,0,1-.54,2.51,6.45,6.45,0,0,1-2.29,1.42,114.21,114.21,0,0,1-18.05,5.48" style="fill:#a36957"></path><path d="M300.35,275.47a3.77,3.77,0,0,1-.71,1.69,5.3,5.3,0,0,1-3.61,2.55,6.56,6.56,0,0,1-2.46-.29l-1.9-.49c-1.07-.3-1.74-.39-1.74-.45a3.68,3.68,0,0,1,1.82.08l1.93.38a6.66,6.66,0,0,0,2.28.24,5.34,5.34,0,0,0,3.37-2.24A17.65,17.65,0,0,1,300.35,275.47Z" style="fill:#7c3b29"></path><path d="M300.73,283.66a8.06,8.06,0,0,1-1.88-2.22,8.16,8.16,0,0,1-1.44-2.53,8.06,8.06,0,0,1,1.88,2.22A8.3,8.3,0,0,1,300.73,283.66Z" style="fill:#7c3b29"></path><path d="M296.74,280.73c.17,0,.09,1.1-.67,2.1s-1.58,1.55-1.67,1.43.57-.79,1.24-1.74S296.6,280.73,296.74,280.73Z" style="fill:#7c3b29"></path><path d="M287.7,279.43a3.82,3.82,0,0,1-.52-2.72,3.76,3.76,0,0,1,1-2.58c.14.07-.35,1.18-.46,2.63S287.85,279.39,287.7,279.43Z" style="fill:#7c3b29"></path><path d="M291.13,293.66a2.9,2.9,0,0,1,.45-.2l1.31-.48,4.86-1.67L305,288.9l2.09-.69a11.81,11.81,0,0,0,2.1-.8,2.32,2.32,0,0,0,1.36-1.54,1.88,1.88,0,0,0-1-1.8,4.56,4.56,0,0,0-2.21-.56c-.8,0-1.59-.05-2.36,0a24.06,24.06,0,0,0-4.43.47c-1.39.3-2.7.7-4,.86a8.36,8.36,0,0,1-3.6-.24,15,15,0,0,1-4.57-2.41c-.49-.35-.86-.64-1.11-.85s-.38-.31-.36-.33.57.35,1.59,1a16.13,16.13,0,0,0,4.55,2.22,8.28,8.28,0,0,0,3.43.17c1.25-.18,2.54-.59,4-.91A24.13,24.13,0,0,1,305,283q1.19,0,2.4,0a4.87,4.87,0,0,1,2.48.65,2.36,2.36,0,0,1,1.18,2.32,2.79,2.79,0,0,1-1.63,1.92,13.17,13.17,0,0,1-2.19.83l-2.1.67-7.27,2.3L293,293.18l-1.35.38A1.33,1.33,0,0,1,291.13,293.66Z" style="fill:#7c3b29"></path><path d="M296.18,291.78a9.79,9.79,0,0,1,1.06,3,9.3,9.3,0,0,1,.55,3.13,19.18,19.18,0,0,1-1.61-6.14Z" style="fill:#7c3b29"></path><path d="M301.57,290.39c.14,0,.39.51.48,1.22s0,1.3-.15,1.31-.29-.55-.38-1.24S301.43,290.42,301.57,290.39Z" style="fill:#7c3b29"></path><path d="M309.2,264.86a5.57,5.57,0,0,1-1.05.51l-2.92,1.29c-2.45,1.11-5.85,2.63-9.47,4.54-.9.48-1.78,1-2.59,1.47a6.88,6.88,0,0,0-2.05,1.73,8.64,8.64,0,0,0-1.59,4.27,10.91,10.91,0,0,0,.58,4.23,3.39,3.39,0,0,1-.52-1.06,8.29,8.29,0,0,1-.43-3.2,8.65,8.65,0,0,1,1.57-4.53,5.26,5.26,0,0,1,1-1c.38-.29.77-.58,1.19-.84.82-.53,1.71-1,2.62-1.51,3.65-1.91,7.08-3.38,9.57-4.4,1.25-.51,2.27-.9,3-1.14A4.53,4.53,0,0,1,309.2,264.86Z" style="fill:#7c3b29"></path><path d="M174.83,455.81l-22.67-43.3,7.21-46.34-3.64-72.51a33.3,33.3,0,0,0-30.26-9.4H88.85c-4.77,1.66-23.64,5.06-28.44,7.76-15.24,8.57-18.24,28.63-13.12,45.35L65,406.32l-2.4,50.33Z" style="fill:#66E4BE"></path><polygon points="155.73 293.66 194.49 337.33 152.15 363.44 155.73 293.66" style="fill:#66E4BE"></polygon><g style="opacity:0.4"><path d="M64.56,427c-1.47,7.4,3.59,14.87,10.18,18.53s14.38,4.3,21.91,4.64c22.08,1,44.34,0,66-4.42-10.75-3.38-22.15-4-33.42-4.23s-22.62-.14-33.7-2.19-22.06-6.42-30-14.41"></path></g><path d="M174.8,446.7s-75.52-1-84.36-1.94c-11.29-1.23-24.59-8.58-28.75-24.54-2-7.6-22.91-71.69-16.16-100.52.06-.29.13-.57.2-.86,4.6-18.29,30.82-17.61,34.42.91L97.35,409l80.88,18.38,16.27-8.64,27.19,15.58-4.06,12.41Z" style="fill:#a36957"></path><path d="M62.3,291.61c-.59.39-19.6,6.17-20.53,28.14-1,23.3,2.79,59.31,2.79,59.31l48.82-3.36-16.5-76.43Z" style="fill:#66E4BE"></path><path d="M152.15,418.71a5.13,5.13,0,0,1-.05-.81c0-.53,0-1.31,0-2.32a81.62,81.62,0,0,1,.64-8.51c.43-3.58,1.16-7.81,2.07-12.48s2-9.78,2.87-15.19A98.38,98.38,0,0,0,159.07,364a58.4,58.4,0,0,0-1.23-12.5,43.17,43.17,0,0,0-2.58-8.08c-.36-.93-.76-1.61-1-2.1a5.87,5.87,0,0,1-.32-.74,4.22,4.22,0,0,1,.42.69c.24.48.66,1.14,1.06,2.07a39.81,39.81,0,0,1,2.76,8.08A56.09,56.09,0,0,1,159.56,364a95.37,95.37,0,0,1-1.35,15.44c-.89,5.43-2,10.55-2.92,15.21s-1.7,8.87-2.17,12.43-.72,6.46-.81,8.47c-.07,1-.07,1.78-.1,2.31A4.29,4.29,0,0,1,152.15,418.71Z" style="fill:#263238"></path><path d="M44.56,379.06l.24,0,.73-.08,2.81-.24,10.32-.8,34.07-2.42.63-.05-.24.31-5-33.38c-.6-4.23-1.09-7.67-1.44-10.1-.16-1.16-.28-2.07-.37-2.74,0-.29-.06-.53-.08-.72a.69.69,0,0,1,0-.25.81.81,0,0,1,.06.24c0,.19.08.42.14.71.11.67.27,1.58.46,2.73.39,2.43.94,5.86,1.61,10.08,1.32,8.56,3.14,20.32,5.14,33.35l0,.28-.29,0-.63,0-34.08,2.27-10.34.63-2.81.14-.73,0C44.64,379.08,44.56,379.07,44.56,379.06Z" style="fill:#263238"></path><path d="M132.48,363.39s.07.16.13.48a12.75,12.75,0,0,1,.25,1.41,21.48,21.48,0,0,1,0,5.28,23.48,23.48,0,0,1-2.17,7.52,22.27,22.27,0,0,1-14.29,12.08,23.72,23.72,0,0,1-7.78.88,21.49,21.49,0,0,1-5.2-.91,13.37,13.37,0,0,1-1.35-.48c-.3-.12-.46-.19-.45-.21a29.85,29.85,0,0,0,7,1.22,24.11,24.11,0,0,0,7.62-1,23.27,23.27,0,0,0,8.27-4.4,23,23,0,0,0,5.72-7.42,24.41,24.41,0,0,0,2.24-7.36A30,30,0,0,0,132.48,363.39Z" style="fill:#263238"></path><path d="M48,380.73a1,1,0,0,1-.05-.3c0-.22,0-.51-.08-.87,0-.8-.14-1.92-.24-3.35-.19-2.91-.42-7.12-.62-12.34-.4-10.42-.62-24.84,0-40.75.16-4,.23-7.88.75-11.62A28,28,0,0,1,51,301.16a21,21,0,0,1,6.89-7,29.86,29.86,0,0,1,7.82-3.46,57.74,57.74,0,0,1,12.22-1.88c1.46-.09,2.59-.14,3.36-.17l.87,0h.3a1,1,0,0,1-.3.05l-.87.07L78,289a61.57,61.57,0,0,0-12.13,2,29.93,29.93,0,0,0-7.69,3.48,20.58,20.58,0,0,0-6.7,6.86,27.51,27.51,0,0,0-3.18,10.16c-.51,3.7-.58,7.59-.74,11.56-.57,15.9-.41,30.31-.11,40.73.16,5.21.33,9.43.46,12.34.06,1.43.11,2.55.14,3.36l0,.87A1.36,1.36,0,0,1,48,380.73Z" style="fill:#fafafa"></path><path d="M87.81,292.81a.84.84,0,0,1-.27.05l-.79.09-3,.34a60,60,0,0,0-11,2.22,26.31,26.31,0,0,0-6.91,3.33,17.84,17.84,0,0,0-5.72,6.54,24.77,24.77,0,0,0-2.31,9.39,103,103,0,0,0,0,10.53c.54,14.46,2,27.5,3.26,36.89.65,4.7,1.25,8.49,1.67,11.1.21,1.28.37,2.29.49,3l.12.78a1.17,1.17,0,0,1,0,.28,1.23,1.23,0,0,1-.07-.27c-.05-.2-.1-.46-.17-.77-.15-.73-.34-1.73-.59-3-.49-2.61-1.15-6.39-1.85-11.09a344.78,344.78,0,0,1-3.41-36.92,98.56,98.56,0,0,1,0-10.59,25,25,0,0,1,2.39-9.57,18.38,18.38,0,0,1,5.91-6.69,26.83,26.83,0,0,1,7-3.32,56.2,56.2,0,0,1,11.06-2.06c1.32-.13,2.35-.21,3-.24l.8,0Z" style="fill:#fafafa"></path><path d="M79.15,377.93a4.81,4.81,0,0,1-.14-.87c-.08-.62-.18-1.46-.31-2.51-.24-2.23-.59-5.37-1-9.23-.81-7.84-1.92-18.59-3.15-30.47-.62-5.94-1.18-11.68-.57-16.88a29,29,0,0,1,1.71-7.2,22.29,22.29,0,0,1,3.19-5.6,17,17,0,0,1,7.34-5.62,9.55,9.55,0,0,1,1.4-.44,6,6,0,0,1,1.05-.22,7,7,0,0,1,.87-.11,24.37,24.37,0,0,0-3.24,1,17.16,17.16,0,0,0-7.12,5.66,21.54,21.54,0,0,0-3.07,5.54A28.32,28.32,0,0,0,74.45,318c-.58,5.13,0,10.82.61,16.77,1.17,11.88,2.23,22.64,3,30.48.36,3.87.64,7,.85,9.25.09,1.06.15,1.89.2,2.52A4.49,4.49,0,0,1,79.15,377.93Z" style="fill:#fafafa"></path><path d="M105.65,390.83a5.78,5.78,0,0,1-.18-.89q-.16-1-.42-2.58c-.35-2.29-.84-5.52-1.44-9.49-1.18-8.06-2.78-19.11-4.56-31.33s-3.33-23.32-4.38-31.36a16.53,16.53,0,0,1,.17-5.5,8.55,8.55,0,0,1,1.9-3.69,6,6,0,0,1,2.11-1.55,3.45,3.45,0,0,1,.88-.26,6.55,6.55,0,0,0-2.84,1.95,8.34,8.34,0,0,0-1.75,3.62,16,16,0,0,0-.09,5.38c1.16,8.06,2.76,19.12,4.53,31.34s3.27,23.28,4.4,31.35c.53,4,1,7.21,1.27,9.51.14,1.09.24,1.95.32,2.59A5.58,5.58,0,0,1,105.65,390.83Z" style="fill:#fafafa"></path><path d="M114.78,413.42a25.54,25.54,0,0,1-.25-3.32c-.12-2.05-.33-4.87-.72-8s-.87-5.89-1.26-7.91a28.44,28.44,0,0,1-.57-3.28,16.63,16.63,0,0,1,.94,3.2,74.92,74.92,0,0,1,1.42,7.93,72.44,72.44,0,0,1,.56,8A16.76,16.76,0,0,1,114.78,413.42Z" style="fill:#fafafa"></path><path d="M96.71,458a62.25,62.25,0,0,1-1.29-11.44,31.21,31.21,0,0,1,.91,5.69A31.53,31.53,0,0,1,96.71,458Z" style="fill:#fafafa"></path><path d="M74.27,438.77a82.65,82.65,0,0,1,.06,9.2,78,78,0,0,1-.47,9.19,77.21,77.21,0,0,1-.06-9.2A78,78,0,0,1,74.27,438.77Z" style="fill:#fafafa"></path><path d="M102.51,388.49a15.16,15.16,0,0,1,.56,3.14,64.84,64.84,0,0,1,.46,7.69,65.4,65.4,0,0,1-.44,7.69,16,16,0,0,1-.54,3.14,23.05,23.05,0,0,1,.17-3.18c.14-2,.28-4.66.28-7.65s-.16-5.69-.3-7.65A23.53,23.53,0,0,1,102.51,388.49Z" style="fill:#fafafa"></path><path d="M112.37,456.75a15.54,15.54,0,0,1-.45-10.22c.16,0-.24,2.31-.1,5.13S112.53,456.71,112.37,456.75Z" style="fill:#fafafa"></path><path d="M130.69,420.38a8.58,8.58,0,0,1-.22-1.42c-.11-1-.26-2.32-.44-3.88-.38-3.28-.95-7.79-1.73-12.76s-1.64-9.44-2.29-12.67c-.31-1.54-.57-2.82-.77-3.83a8.23,8.23,0,0,1-.23-1.42,6.75,6.75,0,0,1,.43,1.37c.25.89.57,2.19.94,3.8.75,3.22,1.66,7.69,2.45,12.67s1.29,9.51,1.57,12.8c.14,1.65.24,3,.28,3.9A7.25,7.25,0,0,1,130.69,420.38Z" style="fill:#fafafa"></path><path d="M131.06,330.64a5.56,5.56,0,0,1,.21.89c.13.63.29,1.48.51,2.55.43,2.22,1,5.45,1.7,9.43,1.38,8,3.12,19,4.73,31.25s2.76,23.37,3.49,31.43c.36,4,.62,7.29.78,9.54.07,1.1.13,2,.17,2.6a5.68,5.68,0,0,1,0,.91,6,6,0,0,1-.13-.9c-.06-.64-.15-1.5-.27-2.59-.23-2.3-.55-5.54-1-9.53-.82-8-2-19.15-3.64-31.39s-3.29-23.27-4.57-31.26c-.64-3.95-1.17-7.17-1.54-9.45-.17-1.08-.3-1.94-.4-2.57A5.44,5.44,0,0,1,131.06,330.64Z" style="fill:#fafafa"></path><path d="M152.84,402.39a.87.87,0,0,1,0-.25c0-.19,0-.43-.06-.72,0-.67-.08-1.59-.14-2.76s-.13-2.66-.27-4.36-.22-3.64-.45-5.78-.42-4.47-.75-7-.68-5.17-1.09-8c-.9-5.6-2.06-11.73-3.58-18.1s-3.28-12.36-5-17.76c-.91-2.68-1.75-5.25-2.64-7.6s-1.71-4.57-2.51-6.56-1.55-3.78-2.21-5.35-1.25-2.92-1.75-4-.84-1.91-1.12-2.53l-.28-.66a1.35,1.35,0,0,1-.08-.24.72.72,0,0,1,.13.21l.33.64,1.21,2.49c.53,1.08,1.16,2.41,1.83,4s1.5,3.33,2.29,5.33,1.71,4.17,2.57,6.54,1.77,4.92,2.7,7.61c1.76,5.4,3.53,11.4,5.07,17.78s2.67,12.53,3.54,18.15c.4,2.82.8,5.49,1.05,8s.51,4.86.68,7,.28,4.08.38,5.79.15,3.17.17,4.37,0,2.09.05,2.77v.72A.72.72,0,0,1,152.84,402.39Z" style="fill:#fafafa"></path><path d="M129,291.65a2.14,2.14,0,0,1,.58.09,9.93,9.93,0,0,1,1.6.54,13.63,13.63,0,0,1,4.9,3.75,28.56,28.56,0,0,1,4.5,8l4.12,10.41c2.86,7.37,5.45,14,7.36,18.94.89,2.39,1.63,4.34,2.17,5.77.23.64.42,1.16.56,1.58a2.73,2.73,0,0,1,.17.56,2.35,2.35,0,0,1-.27-.53c-.17-.4-.39-.91-.65-1.54l-2.34-5.7-7.5-18.89c-1.44-3.69-2.82-7.2-4.08-10.41a29.13,29.13,0,0,0-4.33-7.93,14.09,14.09,0,0,0-4.7-3.8C129.8,291.84,129,291.71,129,291.65Z" style="fill:#fafafa"></path><path d="M111.16,314.49a4,4,0,0,1,.09.77q.06.83.15,2.19c.13,2,.31,4.7.54,8.07.49,6.8,1.33,16.19,2.68,26.52s2.95,19.62,4.23,26.32c.64,3.31,1.17,6,1.55,7.94q.25,1.33.42,2.16a3.79,3.79,0,0,1,.11.76,4,4,0,0,1-.21-.74c-.14-.54-.31-1.25-.52-2.14-.45-1.86-1-4.56-1.72-7.9-1.38-6.69-3-16-4.39-26.33s-2.13-19.75-2.53-26.57c-.2-3.41-.32-6.17-.37-8.08,0-.91,0-1.64,0-2.2A4.59,4.59,0,0,1,111.16,314.49Z" style="fill:#fafafa"></path><path d="M185.54,341.56a4.25,4.25,0,0,1-.5-.71l-1.34-2.08-4.86-7.7-7.13-11.46c-2.7-4.3-5.58-9.1-8.75-14a61.07,61.07,0,0,0-5.11-6.81,36.69,36.69,0,0,0-5.82-5.35,38.86,38.86,0,0,0-20.87-7.5c-1.07-.07-1.9-.08-2.47-.07a5.25,5.25,0,0,1-.86,0,5.36,5.36,0,0,1,.86-.07,23.25,23.25,0,0,1,2.48,0,36.51,36.51,0,0,1,9,1.4A38.82,38.82,0,0,1,152.32,293a36.31,36.31,0,0,1,5.92,5.4,59.77,59.77,0,0,1,5.16,6.87c3.2,4.93,6,9.73,8.72,14.05l7,11.51c2,3.26,3.56,5.91,4.7,7.79l1.26,2.14A7,7,0,0,1,185.54,341.56Z" style="fill:#fafafa"></path><path d="M173.4,349.54a4.83,4.83,0,0,1-.41-.69l-1.09-2L168,339.37l-12.73-24.72a132.7,132.7,0,0,0-7.37-13.37,29.49,29.49,0,0,0-8.66-8.76,19.54,19.54,0,0,0-7.75-3c-2-.26-3.07-.13-3.07-.2a12,12,0,0,1,3.1,0,19.09,19.09,0,0,1,7.92,2.85,29.35,29.35,0,0,1,8.86,8.81,122.53,122.53,0,0,1,7.44,13.4l12.6,24.79c1.56,3.15,2.84,5.71,3.76,7.54.41.86.75,1.55,1,2.06A4.1,4.1,0,0,1,173.4,349.54Z" style="fill:#fafafa"></path><g style="opacity:0.4"><path d="M101.64,389.66a1.86,1.86,0,0,0-.71,2.6,4.81,4.81,0,0,0,2.38,1.83c6.9,3.09,15.4,2.9,21.7-1.28s9.81-12.53,7.55-19.75a23.09,23.09,0,0,1-30.23,16.52"></path></g><g style="opacity:0.4"><path d="M154.15,341.72l-12-19c9.73,5.48,16.41,15,22.76,24.16,1,1.48,2.08,3.07,2.15,4.86a6.41,6.41,0,0,1-2.83,5.16,18.88,18.88,0,0,1-5.56,2.51c-.49-2.8-1-5.61-1.45-8.41"></path></g><path d="M169.31,245.41c-1.63-1.31-3.95-1.49-5.62-2.75-3.44-2.59-2.45-7.86-3.19-12.11-.81-4.62-3.95-8.42-6.44-12.39s-5.38-9.73-3.54-14l-33.65,61.7h52.78s1.6-9.71,1.88-12.54S171.53,247.18,169.31,245.41Z" style="fill:#263238"></path><path d="M99.38,184.14c1.63-5,7-7.77,12.23-8.39s7.73,1.49,12.83.34c7-1.57,11.08-4,15.71-3.19,4.18.68,9.49,2,13.26,6.36,2.77,3.2,2.87,10.7,1.72,14.78-1.06,3.72-3.95,6.76-4.72,10.55-.72,3.51.48,7.09,1.26,10.59,2.33,10.5.52,22.27-6.44,30.47s-19.5,11.83-29.11,7" style="fill:#263238"></path><path d="M129.41,331.09l-1.75-60.24s15.25-2.26,18.76-22c1.74-9.84,1.53-26,.93-39.27-.54-11.92-13.15-24-25-23l-38.6,6.64v6.4l-.38,87.94,46.06,43.56Z" style="fill:#a36957"></path><path d="M142.69,221.61a2.55,2.55,0,0,1-2.5,2.52,2.43,2.43,0,0,1-2.58-2.34,2.53,2.53,0,0,1,2.49-2.52A2.44,2.44,0,0,1,142.69,221.61Z" style="fill:#263238"></path><path d="M143.69,217.89c-.32.33-2.22-1.13-5-1.17s-4.77,1.29-5.06.95c-.14-.15.19-.74,1.07-1.37a7,7,0,0,1,4.06-1.17,6.72,6.72,0,0,1,3.95,1.35C143.58,217.14,143.85,217.75,143.69,217.89Z" style="fill:#263238"></path><path d="M116.75,221.15a2.55,2.55,0,0,1-2.5,2.52,2.43,2.43,0,0,1-2.58-2.34,2.54,2.54,0,0,1,2.5-2.52A2.43,2.43,0,0,1,116.75,221.15Z" style="fill:#263238"></path><path d="M116.77,217.93c-.32.32-2.23-1.14-5-1.18s-4.77,1.29-5.06.95c-.14-.15.19-.74,1.08-1.36a7,7,0,0,1,4.06-1.18,6.76,6.76,0,0,1,3.94,1.35C116.65,217.18,116.92,217.78,116.77,217.93Z" style="fill:#263238"></path><path d="M126.34,238.41c0-.16,1.7-.42,4.47-.72.7-.06,1.36-.19,1.49-.67a3.63,3.63,0,0,0-.43-2.08l-2-5.36c-2.73-7.63-4.7-13.9-4.39-14s2.77,6,5.51,13.63l1.89,5.39a4,4,0,0,1,.31,2.75,1.75,1.75,0,0,1-1.17,1,4.45,4.45,0,0,1-1.19.14C128.07,238.58,126.35,238.57,126.34,238.41Z" style="fill:#263238"></path><path d="M127.66,270.85a50.55,50.55,0,0,1-26.45-7.56s6.21,13.74,26.1,12.24Z" style="fill:#7c3b29"></path><path d="M125.07,245a4.92,4.92,0,0,0-4.39-1.91,4.5,4.5,0,0,0-3.14,1.61,2.86,2.86,0,0,0-.28,3.26,3.32,3.32,0,0,0,3.58,1,10.49,10.49,0,0,0,3.53-2,3.2,3.2,0,0,0,.8-.8.9.9,0,0,0,0-1" style="fill:#7c3b29"></path><path d="M118.25,240.16c.45,0,.4,3,2.91,5.11s5.67,1.88,5.69,2.3c0,.19-.72.57-2,.58A7.45,7.45,0,0,1,120,246.4a6.45,6.45,0,0,1-2.24-4.28C117.7,240.87,118.05,240.14,118.25,240.16Z" style="fill:#263238"></path><path d="M117.67,207.21c-.29.74-3,.34-6.24.67s-5.83,1.16-6.24.48c-.19-.32.28-1,1.34-1.72a10.94,10.94,0,0,1,9.5-.88C117.2,206.26,117.79,206.86,117.67,207.21Z" style="fill:#263238"></path><path d="M142.83,210c-.5.61-2.37-.06-4.64-.14s-4.2.35-4.63-.31c-.18-.32.13-.94,1-1.51a6.73,6.73,0,0,1,7.46.36C142.79,209,143,209.65,142.83,210Z" style="fill:#263238"></path><path d="M106.64,177a27.64,27.64,0,0,1-9.75,38.58c-2.21,1.27-4.71,2.33-6.06,4.49-1.71,2.75-1,6.26-.66,9.48a33.12,33.12,0,0,1-7.6,24.33c-3.79-7.37-7.61-14.86-9.27-23-.84-4.1-1.13-8.35-2.62-12.26-.88-2.34-2.19-4.5-3-6.88a21.65,21.65,0,0,1,.58-13.42,31.71,31.71,0,0,1,40-19.88" style="fill:#263238"></path><path d="M72.13,190.77c-8.93,13.07-4.58,21.58-8,28.27-2.51,4.86-8.34,6.8-12.48,10.36-5.64,4.85-7.93,12.71-7.72,20.15s2.61,14.6,5,21.65l48,.24c3.72-11.71-5.57-24.39-2.59-36.31,1-4.06,3.44-7.81,3.58-12,.09-2.78-.84-5.49-1.46-8.21a37.06,37.06,0,0,1,2.23-23.06" style="fill:#263238"></path><path d="M155.17,185c-.06,0-.33-.62-1.1-1.62a11.1,11.1,0,0,0-4.16-3.17,16.85,16.85,0,0,0-7.66-1.4,34.08,34.08,0,0,0-9.38,2.16c-3.25,1.15-6.33,2.37-9.26,3.08a24.31,24.31,0,0,1-8,.71,14.08,14.08,0,0,1-5.19-1.47,9.31,9.31,0,0,1-1.24-.78,2.5,2.5,0,0,1-.4-.32c0-.06.6.37,1.74.91a14.61,14.61,0,0,0,5.12,1.28,24.27,24.27,0,0,0,7.81-.81c2.88-.72,5.94-2,9.2-3.1a33.21,33.21,0,0,1,9.54-2.15,17,17,0,0,1,7.84,1.54,11,11,0,0,1,4.17,3.4,8,8,0,0,1,.74,1.27A1.8,1.8,0,0,1,155.17,185Z" style="fill:#455a64"></path><path d="M148.22,218.62s.17.09.46.31a3.57,3.57,0,0,1,.5.44,4.68,4.68,0,0,1,.61.68,11,11,0,0,1,2.13,5.37,25.87,25.87,0,0,1,.29,4c0,1.45-.08,3-.05,4.57a20.73,20.73,0,0,0,.58,4.94,9.09,9.09,0,0,0,2.55,4.52,25.84,25.84,0,0,0,4.53,2.87,9.19,9.19,0,0,1,3.66,3.57,12.16,12.16,0,0,1,.88,8.48,27.43,27.43,0,0,1-2,5.45c-.28.62-.52,1.09-.68,1.41a3,3,0,0,1-.27.48,1.79,1.79,0,0,1,.17-.52l.59-1.46a30.67,30.67,0,0,0,1.77-5.44,13.65,13.65,0,0,0,.28-3.9,10.23,10.23,0,0,0-1.22-4.27,8.71,8.71,0,0,0-3.5-3.35,26.21,26.21,0,0,1-4.62-2.93,9.48,9.48,0,0,1-2.7-4.78,20.92,20.92,0,0,1-.56-5.06c0-1.62.08-3.16.1-4.58a28.42,28.42,0,0,0-.22-3.94,11.46,11.46,0,0,0-1.92-5.3A17.58,17.58,0,0,0,148.22,218.62Z" style="fill:#455a64"></path><path d="M66.49,269.41a1.57,1.57,0,0,1-.14-.25l-.35-.75a30.3,30.3,0,0,1-1.14-3,28,28,0,0,1-1.16-4.94,22.67,22.67,0,0,1,.06-6.72,18.32,18.32,0,0,1,3.05-7.54c1.71-2.45,4.34-4.28,6.9-6.29a22.34,22.34,0,0,0,3.6-3.42,11.62,11.62,0,0,0,2.2-4.6c.79-3.43.26-7.16-.51-10.83s-1.68-7.34-1.52-11a14,14,0,0,1,1.16-5.19,13.3,13.3,0,0,1,3-4.14,25.68,25.68,0,0,1,8-4.87c2.7-1.12,5.27-2,7.52-3a24.19,24.19,0,0,0,5.68-3.41,15,15,0,0,0,3.3-3.74,10.66,10.66,0,0,0,1.25-2.9c.19-.7.24-1.08.27-1.08a5.73,5.73,0,0,1-.16,1.11,10.23,10.23,0,0,1-1.18,3,14.84,14.84,0,0,1-3.29,3.87,23.78,23.78,0,0,1-5.72,3.52c-2.26,1.05-4.83,2-7.5,3.09A25.35,25.35,0,0,0,82,201.14a12.74,12.74,0,0,0-2.85,4,13.27,13.27,0,0,0-1.11,5c-.15,3.53.72,7.15,1.52,10.84s1.33,7.49.5,11.06a12,12,0,0,1-2.31,4.8,22.47,22.47,0,0,1-3.7,3.49c-2.59,2-5.17,3.8-6.84,6.16a18,18,0,0,0-3,7.35,25.13,25.13,0,0,0,.92,11.53c.4,1.32.79,2.33,1,3l.3.77A1,1,0,0,1,66.49,269.41Z" style="fill:#455a64"></path><path d="M107.09,181.77a1.11,1.11,0,0,1-.32,0l-1-.09c-.84-.07-2.07-.19-3.66-.26a40.54,40.54,0,0,0-13.28,1.46A26.36,26.36,0,0,0,80.66,187,20.94,20.94,0,0,0,74,195.09c-1.57,3.39-1.87,7.4-1.82,11.46s.4,8.37-.43,12.7a17.82,17.82,0,0,1-2.26,6.09,14.49,14.49,0,0,1-4.45,4.47c-3.45,2.29-7.22,3.67-10.08,6.07a15.47,15.47,0,0,0-5.11,9,21.67,21.67,0,0,0,.2,9.15,30.94,30.94,0,0,0,2.72,7.12,52,52,0,0,0,3,5c.9,1.31,1.63,2.31,2.12,3l.56.77.18.27s-.08-.08-.22-.24l-.61-.74c-.52-.66-1.28-1.63-2.2-2.94a47.68,47.68,0,0,1-3.07-4.93,30.8,30.8,0,0,1-2.82-7.17,21.76,21.76,0,0,1-.27-9.32,15.84,15.84,0,0,1,5.22-9.26c3-2.48,6.74-3.88,10.11-6.13a14.15,14.15,0,0,0,4.29-4.32,17.43,17.43,0,0,0,2.18-5.91c.82-4.24.47-8.5.44-12.6s.27-8.17,1.89-11.66a21.44,21.44,0,0,1,6.81-8.25,26.6,26.6,0,0,1,8.37-4.13,39.22,39.22,0,0,1,13.41-1.3c1.59.09,2.82.25,3.65.35l.94.15A1.26,1.26,0,0,1,107.09,181.77Z" style="fill:#455a64"></path><path d="M81.78,271.5a12.27,12.27,0,0,0,3.14-2.28,13.07,13.07,0,0,0,2.53-3.76,17.32,17.32,0,0,0,1.43-5.83,23,23,0,0,0-.72-7.26,72.37,72.37,0,0,0-2.6-8,63.38,63.38,0,0,1-2.78-9,22.17,22.17,0,0,1,0-10.09,15.7,15.7,0,0,1,2.15-4.7,22.59,22.59,0,0,1,3.29-3.77c2.4-2.24,5-4,7.38-5.82a33.71,33.71,0,0,0,6.18-5.69,24.68,24.68,0,0,0,3.71-6.28,25.71,25.71,0,0,0,1.93-10.39,13.49,13.49,0,0,0-.09-1.66,10.39,10.39,0,0,0-.13-1.22c0-.31-.07-.55-.09-.75a1,1,0,0,1,0-.26,17.93,17.93,0,0,1,.54,3.89,25.4,25.4,0,0,1-1.79,10.53,25.12,25.12,0,0,1-3.71,6.42,34.44,34.44,0,0,1-6.23,5.8c-2.37,1.84-5,3.6-7.32,5.81a21.79,21.79,0,0,0-3.21,3.68,15.15,15.15,0,0,0-2.07,4.55,21.69,21.69,0,0,0,0,9.85A63.5,63.5,0,0,0,86,244.16a71,71,0,0,1,2.57,8.11,23.71,23.71,0,0,1,.67,7.39,17.64,17.64,0,0,1-1.54,5.92,13.29,13.29,0,0,1-2.65,3.79,10.06,10.06,0,0,1-2.36,1.73l-.69.31Z" style="fill:#455a64"></path><path d="M109.15,190.32c5.08,3.55,10.7,7.27,16.88,6.83,3.67-.26,7.06-2,10.55-3.13s7.55-1.7,10.68.24c2-.17,3-2.92,2.08-4.74s-2.9-2.82-4.82-3.47c-11.12-3.79-22.2.5-34.7,1.31" style="fill:#263238"></path><path d="M154.7,193.57a5.54,5.54,0,0,0,.42-2,5.36,5.36,0,0,0-2.61-4.53,7.69,7.69,0,0,0-3.58-1.07,11.35,11.35,0,0,0-4.28.71c-3,1-5.73,3.1-9.11,4.53a22.68,22.68,0,0,1-5.11,1.5,23.49,23.49,0,0,1-5,.36,24.09,24.09,0,0,1-8.2-1.63,21.68,21.68,0,0,1-5-2.68,14.51,14.51,0,0,1-1.19-1c-.27-.22-.4-.35-.39-.37a28.21,28.21,0,0,0,6.67,3.67,24.51,24.51,0,0,0,8.08,1.49,23.93,23.93,0,0,0,4.85-.38,22.19,22.19,0,0,0,5-1.48c3.3-1.39,6.12-3.51,9.16-4.51a11.55,11.55,0,0,1,4.46-.68,7.88,7.88,0,0,1,3.76,1.19,5.65,5.65,0,0,1,2.14,2.44,5.19,5.19,0,0,1,.47,2.41,4,4,0,0,1-.34,1.51A1.42,1.42,0,0,1,154.7,193.57Z" style="fill:#455a64"></path><path d="M227.2,366.74l-45.66,79.73-64.65,2.24v7.11H305.77l51.41-84.21a4.78,4.78,0,0,0-4.08-7.27H231.35A4.8,4.8,0,0,0,227.2,366.74Z" style="fill:#263238"></path><path d="M280.28,412.92c-2.3,3.58-6.25,5.13-8.83,3.48s-2.81-5.9-.51-9.48,6.25-5.13,8.83-3.47S282.58,409.35,280.28,412.92Z" style="fill:#e0e0e0"></path><path d="M187.58,455.51c-.12-.08,11.2-20.55,25.3-45.72s25.64-45.52,25.77-45.45-11.2,20.53-25.3,45.71S187.71,455.58,187.58,455.51Z" style="fill:#455a64"></path></g><g id="freepik--Plant--inject-275"><polygon points="385.47 404.08 393.3 455.5 438.76 455.5 449.31 404.82 385.47 404.08" style="fill:#66E4BE"></polygon><path d="M443,437c0,.14-11.65.26-26,.26s-26-.12-26-.26,11.65-.27,26-.27S443,436.89,443,437Z" style="fill:#fafafa"></path><path d="M443.13,434.51c0,.15-11.72.27-26.19.27s-26.2-.12-26.2-.27,11.73-.27,26.2-.27S443.13,434.36,443.13,434.51Z" style="fill:#fafafa"></path><path d="M443,431.65c0,.15-11.72.27-26.19.27s-26.2-.12-26.2-.27,11.73-.26,26.2-.26S443,431.5,443,431.65Z" style="fill:#fafafa"></path><path d="M398.52,452.57a82.84,82.84,0,0,1-2.26-13,41.32,41.32,0,0,1,1.39,6.48A40.06,40.06,0,0,1,398.52,452.57Z" style="fill:#fafafa"></path><path d="M401.61,452a50.51,50.51,0,0,1-.56-6.31,49.5,49.5,0,0,1-.3-6.34,29.44,29.44,0,0,1,.83,6.3A29.93,29.93,0,0,1,401.61,452Z" style="fill:#fafafa"></path><path d="M407.25,452a51.77,51.77,0,0,1-1.53-13,58,58,0,0,1,.88,6.51A56.09,56.09,0,0,1,407.25,452Z" style="fill:#fafafa"></path><path d="M411.21,452.29a31.08,31.08,0,0,1-.63-6.58,31.9,31.9,0,0,1,.2-6.61,57.23,57.23,0,0,1,.33,6.59A56.1,56.1,0,0,1,411.21,452.29Z" style="fill:#fafafa"></path><path d="M418.21,452a72.74,72.74,0,0,1-.42-12.52,72.74,72.74,0,0,1,.42,12.52Z" style="fill:#fafafa"></path><path d="M423.33,452.3a40,40,0,0,1-.22-6.47,40.45,40.45,0,0,1,.32-6.46,38.65,38.65,0,0,1,.22,6.47A39.1,39.1,0,0,1,423.33,452.3Z" style="fill:#fafafa"></path><path d="M428.13,451.61a42,42,0,0,1,.38-6.75,44,44,0,0,1,.92-6.71,41.53,41.53,0,0,1-.39,6.76A44.83,44.83,0,0,1,428.13,451.61Z" style="fill:#fafafa"></path><path d="M434.31,450.94a22.82,22.82,0,0,1,.77-5.75,22.31,22.31,0,0,1,1.69-5.54,53.9,53.9,0,0,1-1.17,5.66A51.37,51.37,0,0,1,434.31,450.94Z" style="fill:#fafafa"></path><path d="M429.93,302.6a.94.94,0,0,1-.05.25c-.06.2-.13.44-.21.73l-.87,2.78c-.39,1.2-.85,2.67-1.33,4.4s-1.1,3.67-1.64,5.86-1.21,4.57-1.78,7.16-1.16,5.36-1.75,8.28c-1.09,5.87-2.08,12.35-2.78,19.19s-1,13.41-1.07,19.37c0,3,0,5.82.09,8.47s.18,5.12.32,7.37.31,4.28.45,6.07.29,3.32.43,4.58.23,2.18.3,2.89c0,.3,0,.55.07.75a.86.86,0,0,1,0,.26.83.83,0,0,1-.06-.25c0-.2-.07-.45-.11-.75-.1-.7-.23-1.66-.4-2.88s-.37-2.78-.53-4.57-.41-3.82-.53-6.08-.32-4.72-.39-7.38-.11-5.49-.13-8.48c.07-6,.36-12.55,1-19.42s1.72-13.36,2.84-19.23c.61-2.93,1.15-5.71,1.8-8.29s1.24-5,1.84-7.16,1.2-4.13,1.72-5.85,1-3.19,1.42-4.38.73-2.08,1-2.74l.27-.71A1.13,1.13,0,0,1,429.93,302.6Z" style="fill:#455a64"></path><path d="M421.73,334.44a16.8,16.8,0,0,1,7.07-8.92c1.12-.7,2.54-1.27,3.73-.69,1.59.77,1.72,3,1.25,4.7a12.5,12.5,0,0,1-5.15,7,10.51,10.51,0,0,1-7.72,1.95" style="fill:#455a64"></path><path d="M419,356c1.17-4.44,4.71-10.75,8.39-13.5a5.6,5.6,0,0,1,1.91-1,2.21,2.21,0,0,1,2,.45,3.13,3.13,0,0,1,.45,2.94,17.89,17.89,0,0,1-13.26,13.36" style="fill:#455a64"></path><path d="M418.2,374.88a26,26,0,0,1,8.47-10.65,4,4,0,0,1,2.95-1.06c1.61.3,2.34,2.26,2.2,3.88-.29,3.35-2.85,6-5.49,8.12a33.88,33.88,0,0,1-7.83,4" style="fill:#455a64"></path><path d="M418.63,388.48a25,25,0,0,1,7.21-8.2,5.15,5.15,0,0,1,2.16-1,2.2,2.2,0,0,1,2.12.81c.72,1.06,0,2.49-.74,3.52a20.64,20.64,0,0,1-10.28,7.54" style="fill:#455a64"></path><path d="M418.28,383A80.47,80.47,0,0,0,408,372.46a2.34,2.34,0,0,0-2.05-.78,1.56,1.56,0,0,0-.94,1.39,3.86,3.86,0,0,0,.39,1.72A20,20,0,0,0,418.63,386" style="fill:#455a64"></path><path d="M418.6,365.25l-8.09-9.87a9.69,9.69,0,0,0-2.62-2.49,3.34,3.34,0,0,0-3.46,0,3.26,3.26,0,0,0-1.1,3.26,8.49,8.49,0,0,0,1.57,3.24,24.11,24.11,0,0,0,5.9,6.26c2.38,1.64,4.54,2.7,7.39,2.28" style="fill:#455a64"></path><path d="M419.73,345.31a28.17,28.17,0,0,0-8.14-12.22,4.76,4.76,0,0,0-2.13-1.24c-1.62-.31-3.18,1-3.71,2.61a6.66,6.66,0,0,0,.74,5.35,14.3,14.3,0,0,0,3.8,4,32.87,32.87,0,0,0,9,4.86" style="fill:#455a64"></path><path d="M423,327.54c-.78-5.72-3.76-10.48-7.21-15.11-.72-1-1.74-2-2.94-1.83a2.33,2.33,0,0,0-1.69,1.45,5.4,5.4,0,0,0-.32,2.29,17.67,17.67,0,0,0,11.46,15.78" style="fill:#455a64"></path><path d="M425.23,318.46a46.7,46.7,0,0,1-.3-8.84,15.84,15.84,0,0,1,2.94-8.24,6.8,6.8,0,0,1,2.94-2.34,3.68,3.68,0,0,1,3.6.48,3.91,3.91,0,0,1,1.23,3.17,9.87,9.87,0,0,1-.91,3.39c-2.15,5.19-5.75,10.93-9.5,12.38" style="fill:#455a64"></path><path d="M390,325.28a3.13,3.13,0,0,1,0,.72c0,.53,0,1.22,0,2.08s0,2,0,3.28.05,2.74.16,4.34c.14,3.22.45,7,.94,11.27s1.24,8.85,2.24,13.66,2.22,9.33,3.44,13.41,2.5,7.69,3.66,10.7c.55,1.51,1.13,2.85,1.6,4s.91,2.2,1.28,3,.6,1.43.81,1.91a3.67,3.67,0,0,1,.25.68,3.1,3.1,0,0,1-.35-.63l-.9-1.87c-.4-.82-.86-1.82-1.36-3s-1.11-2.51-1.68-4c-1.21-3-2.5-6.61-3.78-10.69s-2.47-8.62-3.49-13.44-1.71-9.47-2.21-13.71-.74-8.08-.83-11.31c-.08-1.61-.06-3.07-.08-4.36s0-2.38,0-3.28.06-1.55.08-2.08A3.42,3.42,0,0,1,390,325.28Z" style="fill:#263238"></path><path d="M391.24,348.72a12.08,12.08,0,0,1,2.89-7.6,2.92,2.92,0,0,1,2.4-1.27c1.24.18,1.81,1.67,1.85,2.93a8.83,8.83,0,0,1-2,5.88,7.47,7.47,0,0,1-4.84,3" style="fill:#263238"></path><path d="M394,364c-.16-3.28.89-8.33,2.81-11a3.77,3.77,0,0,1,1.08-1.1,1.57,1.57,0,0,1,1.48-.14,2.24,2.24,0,0,1,.95,1.91,12.8,12.8,0,0,1-6.16,11.95" style="fill:#263238"></path><path d="M397.54,377a18.56,18.56,0,0,1,3.48-9.07,2.84,2.84,0,0,1,1.78-1.35c1.16-.15,2.08,1,2.33,2.16.52,2.35-.64,4.72-2,6.71a23.94,23.94,0,0,1-4.47,4.42" style="fill:#263238"></path><path d="M400.76,386.18a17.9,17.9,0,0,1,3.14-7.13,3.81,3.81,0,0,1,1.27-1.13,1.57,1.57,0,0,1,1.61.09c.72.57.56,1.7.26,2.56a14.71,14.71,0,0,1-5.38,7.35" style="fill:#263238"></path><path d="M399.33,382.49a57.12,57.12,0,0,0-9.27-4.92,1.64,1.64,0,0,0-1.56-.09,1.1,1.1,0,0,0-.35,1.15,2.65,2.65,0,0,0,.64,1.08,14.24,14.24,0,0,0,11.43,4.74" style="fill:#263238"></path><path d="M395.74,370.37l-7.63-5a7.14,7.14,0,0,0-2.32-1.13,2.38,2.38,0,0,0-2.36.72,2.32,2.32,0,0,0-.06,2.45,6.1,6.1,0,0,0,1.78,1.87,17.09,17.09,0,0,0,5.36,3c2,.6,3.67.86,5.52,0" style="fill:#263238"></path><path d="M392.22,356.55A20.12,20.12,0,0,0,384,350a3.42,3.42,0,0,0-1.71-.38,2.53,2.53,0,0,0-2,2.57,4.77,4.77,0,0,0,1.65,3.49,10,10,0,0,0,3.46,1.92,23.42,23.42,0,0,0,7.17,1.37" style="fill:#263238"></path><path d="M390.59,343.76c-1.76-3.73-4.81-6.33-8.16-8.74a2.48,2.48,0,0,0-2.39-.61,1.66,1.66,0,0,0-.84,1.35,3.79,3.79,0,0,0,.27,1.63,12.61,12.61,0,0,0,11.2,8.28" style="fill:#263238"></path><path d="M390.18,337.09a34.3,34.3,0,0,1-2.1-6,11.31,11.31,0,0,1,.22-6.24,4.89,4.89,0,0,1,1.5-2.23,2.68,2.68,0,0,1,2.56-.45,2.82,2.82,0,0,1,1.52,1.9,7.24,7.24,0,0,1,.11,2.5c-.35,4-1.56,8.68-3.81,10.48" style="fill:#263238"></path><path d="M447.45,324.78a3.76,3.76,0,0,1,.07.72c0,.53,0,1.22.08,2.08s0,2,0,3.29,0,2.74-.07,4.35c-.1,3.23-.37,7.06-.83,11.31s-1.21,8.88-2.21,13.71-2.24,9.36-3.49,13.44-2.57,7.7-3.78,10.69c-.58,1.51-1.18,2.84-1.68,4s-1,2.19-1.36,3l-.9,1.87a3.87,3.87,0,0,1-.35.63,3.67,3.67,0,0,1,.25-.68c.21-.48.48-1.12.81-1.91s.8-1.83,1.27-3,1.06-2.53,1.61-4c1.16-3,2.41-6.63,3.66-10.7s2.42-8.6,3.44-13.41,1.72-9.43,2.24-13.66.8-8.05.94-11.27c.11-1.6.11-3.06.16-4.34s.05-2.38.05-3.28,0-1.55,0-2.08A5.07,5.07,0,0,1,447.45,324.78Z" style="fill:#455a64"></path><path d="M446.19,348.23a12.09,12.09,0,0,0-2.89-7.6,2.92,2.92,0,0,0-2.4-1.28c-1.25.18-1.81,1.68-1.86,2.93a8.89,8.89,0,0,0,2,5.89,7.5,7.5,0,0,0,4.83,3" style="fill:#455a64"></path><path d="M443.44,363.46c.16-3.27-.9-8.33-2.81-11a3.9,3.9,0,0,0-1.08-1.1,1.57,1.57,0,0,0-1.48-.14,2.24,2.24,0,0,0-.95,1.91,12.78,12.78,0,0,0,6.16,11.95" style="fill:#455a64"></path><path d="M439.88,376.51a18.45,18.45,0,0,0-3.47-9.07,2.84,2.84,0,0,0-1.78-1.35c-1.16-.15-2.08,1-2.33,2.17-.52,2.34.64,4.72,2,6.7a24.21,24.21,0,0,0,4.46,4.43" style="fill:#455a64"></path><path d="M436.66,385.68a17.68,17.68,0,0,0-3.14-7.13,3.69,3.69,0,0,0-1.26-1.13,1.57,1.57,0,0,0-1.62.1c-.72.56-.56,1.69-.25,2.55a14.71,14.71,0,0,0,5.38,7.35" style="fill:#455a64"></path><path d="M438.1,382a56.4,56.4,0,0,1,9.27-4.93,1.64,1.64,0,0,1,1.56-.09,1.1,1.1,0,0,1,.35,1.15,2.77,2.77,0,0,1-.64,1.08A14.28,14.28,0,0,1,437.21,384" style="fill:#455a64"></path><path d="M441.68,369.87l7.64-5a7,7,0,0,1,2.32-1.13,2.39,2.39,0,0,1,2.36.72,2.32,2.32,0,0,1,.05,2.45,6.07,6.07,0,0,1-1.77,1.87,17.09,17.09,0,0,1-5.36,3c-2,.6-3.67.86-5.52,0" style="fill:#455a64"></path><path d="M445.21,356.06a20.1,20.1,0,0,1,8.17-6.58,3.49,3.49,0,0,1,1.72-.38,2.53,2.53,0,0,1,2,2.57,4.81,4.81,0,0,1-1.65,3.49,10,10,0,0,1-3.46,1.92,23.14,23.14,0,0,1-7.18,1.37" style="fill:#455a64"></path><path d="M446.83,343.26c1.77-3.73,4.82-6.33,8.16-8.74a2.51,2.51,0,0,1,2.4-.61,1.66,1.66,0,0,1,.84,1.36,3.92,3.92,0,0,1-.27,1.62,12.61,12.61,0,0,1-11.21,8.28" style="fill:#455a64"></path><path d="M447.24,336.59a33.53,33.53,0,0,0,2.11-6,11.22,11.22,0,0,0-.23-6.24,4.79,4.79,0,0,0-1.49-2.22,2.63,2.63,0,0,0-2.56-.45,2.76,2.76,0,0,0-1.52,1.89,6.78,6.78,0,0,0-.11,2.5c.35,4,1.56,8.68,3.8,10.48" style="fill:#455a64"></path><path d="M380.25,393.89v9.63a3.79,3.79,0,0,0,3.79,3.79h65.84a3.79,3.79,0,0,0,3.79-3.79v-9.63Z" style="fill:#66E4BE"></path><g style="opacity:0.4"><polygon points="385.96 407.31 386.51 410.37 447.26 414.7 448.8 407.31 385.96 407.31"></polygon></g></g></svg>