<svg width="600" height="600" viewBox="0 0 600 600" fill="none" xmlns="http://www.w3.org/2000/svg">
<path d="M576.624 567.144C576.624 567.324 452.772 567.456 300.012 567.456C147.252 567.456 23.376 567.324 23.376 567.144C23.376 566.964 147.204 566.832 300.012 566.832C452.82 566.832 576.624 566.976 576.624 567.144Z" fill="#263238"/>
<path d="M147.528 526.092H72.312V539.748H147.528V526.092Z" fill="#66E4BE"/>
<path d="M79.6799 539.844C79.2639 535.338 79.2639 530.802 79.6799 526.296C80.0959 530.802 80.0959 535.338 79.6799 539.844Z" fill="#263238"/>
<path d="M75.6 539.844C75.184 535.338 75.184 530.802 75.6 526.296C76.016 530.802 76.016 535.338 75.6 539.844Z" fill="#263238"/>
<path d="M88.7159 539.844C88.2999 535.338 88.2999 530.802 88.7159 526.296C89.1319 530.802 89.1319 535.338 88.7159 539.844Z" fill="#263238"/>
<path d="M84.6119 539.844C84.18 535.338 84.18 530.802 84.6119 526.296C85.0279 530.802 85.0279 535.338 84.6119 539.844Z" fill="#263238"/>
<path d="M97.7639 539.844C97.3319 535.338 97.3319 530.802 97.7639 526.296C98.1799 530.802 98.1799 535.338 97.7639 539.844Z" fill="#263238"/>
<path d="M93.6 539.844C93.184 535.338 93.184 530.802 93.6 526.296C94.016 530.802 94.016 535.338 93.6 539.844Z" fill="#263238"/>
<path d="M106.8 539.844C106.384 535.338 106.384 530.802 106.8 526.296C107.216 530.802 107.216 535.338 106.8 539.844Z" fill="#263238"/>
<path d="M102.684 539.844C102.268 535.338 102.268 530.802 102.684 526.296C103.1 530.802 103.1 535.338 102.684 539.844Z" fill="#263238"/>
<path d="M115.836 539.844C115.42 535.338 115.42 530.802 115.836 526.296C116.252 530.802 116.252 535.338 115.836 539.844Z" fill="#263238"/>
<path d="M111.72 539.844C111.304 535.338 111.304 530.802 111.72 526.296C112.136 530.802 112.136 535.338 111.72 539.844Z" fill="#263238"/>
<path d="M124.872 539.844C124.456 535.338 124.456 530.802 124.872 526.296C125.288 530.802 125.288 535.338 124.872 539.844Z" fill="#263238"/>
<path d="M120.756 539.844C120.34 535.338 120.34 530.802 120.756 526.296C121.172 530.802 121.172 535.338 120.756 539.844Z" fill="#263238"/>
<path d="M133.908 539.844C133.492 535.338 133.492 530.802 133.908 526.296C134.324 530.802 134.324 535.338 133.908 539.844Z" fill="#263238"/>
<path d="M129.792 539.844C129.376 535.338 129.376 530.802 129.792 526.296C130.208 530.802 130.208 535.338 129.792 539.844Z" fill="#263238"/>
<path d="M142.944 539.844C142.528 535.338 142.528 530.802 142.944 526.296C143.36 530.802 143.36 535.338 142.944 539.844Z" fill="#263238"/>
<path d="M138.828 539.844C138.412 535.338 138.412 530.802 138.828 526.296C139.26 530.802 139.26 535.338 138.828 539.844Z" fill="#263238"/>
<path d="M147.528 526.092C147.528 526.26 130.572 526.404 109.656 526.404C88.7399 526.404 71.7839 526.26 71.7839 526.092C71.7839 525.924 88.7399 525.78 109.656 525.78C130.572 525.78 147.528 525.912 147.528 526.092Z" fill="#263238"/>
<path d="M141.636 539.64H66.4199V553.296H141.636V539.64Z" fill="#66E4BE"/>
<path d="M73.788 553.392C73.372 548.886 73.372 544.351 73.788 539.844C74.204 544.351 74.204 548.886 73.788 553.392Z" fill="#263238"/>
<path d="M69.672 553.392C69.256 548.886 69.256 544.351 69.672 539.844C70.088 544.351 70.088 548.886 69.672 553.392Z" fill="#263238"/>
<path d="M82.7999 553.392C82.3839 548.886 82.3839 544.351 82.7999 539.844C83.2159 544.351 83.2159 548.886 82.7999 553.392Z" fill="#263238"/>
<path d="M78.708 553.392C78.292 548.886 78.292 544.351 78.708 539.844C79.124 544.351 79.124 548.886 78.708 553.392Z" fill="#263238"/>
<path d="M91.86 553.392C91.444 548.886 91.444 544.351 91.86 539.844C92.276 544.351 92.276 548.886 91.86 553.392Z" fill="#263238"/>
<path d="M87.744 553.392C87.328 548.886 87.328 544.351 87.744 539.844C88.16 544.351 88.16 548.886 87.744 553.392Z" fill="#263238"/>
<path d="M100.896 553.392C100.48 548.886 100.48 544.351 100.896 539.844C101.312 544.351 101.312 548.886 100.896 553.392Z" fill="#263238"/>
<path d="M96.78 553.392C96.364 548.886 96.364 544.351 96.78 539.844C97.212 544.35 97.212 548.886 96.78 553.392Z" fill="#263238"/>
<path d="M109.944 553.392C109.512 548.886 109.512 544.35 109.944 539.844C110.36 544.351 110.36 548.886 109.944 553.392Z" fill="#263238"/>
<path d="M105.828 553.392C105.412 548.886 105.412 544.351 105.828 539.844C106.244 544.351 106.244 548.886 105.828 553.392Z" fill="#263238"/>
<path d="M118.98 553.392C118.564 548.886 118.564 544.351 118.98 539.844C119.396 544.351 119.396 548.886 118.98 553.392Z" fill="#263238"/>
<path d="M114.864 553.392C114.448 548.886 114.448 544.351 114.864 539.844C115.28 544.351 115.28 548.886 114.864 553.392Z" fill="#263238"/>
<path d="M128.016 553.392C127.6 548.886 127.6 544.351 128.016 539.844C128.432 544.351 128.432 548.886 128.016 553.392Z" fill="#263238"/>
<path d="M123.9 553.392C123.484 548.886 123.484 544.351 123.9 539.844C124.316 544.351 124.316 548.886 123.9 553.392Z" fill="#263238"/>
<path d="M137.052 553.392C136.636 548.886 136.636 544.351 137.052 539.844C137.468 544.351 137.468 548.886 137.052 553.392Z" fill="#263238"/>
<path d="M132.936 553.392C132.52 548.886 132.52 544.351 132.936 539.844C133.352 544.351 133.352 548.886 132.936 553.392Z" fill="#263238"/>
<path d="M141.6 539.64C141.6 539.808 124.68 539.952 103.812 539.952C82.944 539.952 66.036 539.808 66.036 539.64C66.036 539.472 82.944 539.328 103.812 539.328C124.68 539.328 141.6 539.472 141.6 539.64Z" fill="#263238"/>
<path d="M136.8 553.392H61.584V567.048H136.8V553.392Z" fill="#66E4BE"/>
<path d="M68.9519 567.144C68.5359 562.637 68.5359 558.102 68.9519 553.596C69.3679 558.102 69.3679 562.637 68.9519 567.144Z" fill="#263238"/>
<path d="M64.7999 567.144C64.3839 562.637 64.3839 558.102 64.7999 553.596C65.2159 558.102 65.2159 562.637 64.7999 567.144Z" fill="#263238"/>
<path d="M78 567.144C77.584 562.637 77.584 558.102 78 553.596C78.416 558.102 78.416 562.637 78 567.144Z" fill="#263238"/>
<path d="M73.8719 567.144C73.4559 562.637 73.4559 558.102 73.8719 553.596C74.3039 558.102 74.3039 562.638 73.8719 567.144Z" fill="#263238"/>
<path d="M87.0239 567.144C86.6079 562.637 86.6079 558.102 87.0239 553.596C87.4559 558.102 87.4559 562.638 87.0239 567.144Z" fill="#263238"/>
<path d="M82.9199 567.144C82.5039 562.637 82.5039 558.102 82.9199 553.596C83.3359 558.102 83.3359 562.637 82.9199 567.144Z" fill="#263238"/>
<path d="M96.072 567.144C95.656 562.637 95.656 558.102 96.072 553.596C96.488 558.102 96.488 562.637 96.072 567.144Z" fill="#263238"/>
<path d="M91.9559 567.144C91.5399 562.637 91.5399 558.102 91.9559 553.596C92.3719 558.102 92.3719 562.637 91.9559 567.144Z" fill="#263238"/>
<path d="M105.108 567.144C104.692 562.637 104.692 558.102 105.108 553.596C105.524 558.102 105.524 562.637 105.108 567.144Z" fill="#263238"/>
<path d="M100.992 567.144C100.576 562.637 100.576 558.102 100.992 553.596C101.408 558.102 101.408 562.637 100.992 567.144Z" fill="#263238"/>
<path d="M114.144 567.144C113.728 562.637 113.728 558.102 114.144 553.596C114.56 558.102 114.56 562.637 114.144 567.144Z" fill="#263238"/>
<path d="M110.028 567.144C109.612 562.637 109.612 558.102 110.028 553.596C110.444 558.102 110.444 562.637 110.028 567.144Z" fill="#263238"/>
<path d="M123.18 567.144C122.764 562.637 122.764 558.102 123.18 553.596C123.596 558.102 123.596 562.637 123.18 567.144Z" fill="#263238"/>
<path d="M119.064 567.144C118.648 562.637 118.648 558.102 119.064 553.596C119.48 558.102 119.48 562.637 119.064 567.144Z" fill="#263238"/>
<path d="M132.216 567.144C131.8 562.637 131.8 558.102 132.216 553.596C132.632 558.102 132.632 562.637 132.216 567.144Z" fill="#263238"/>
<path d="M128.1 567.144C127.684 562.637 127.684 558.102 128.1 553.596C128.516 558.102 128.516 562.637 128.1 567.144Z" fill="#263238"/>
<path d="M136.8 553.392C136.8 553.572 119.88 553.704 99.0239 553.704C78.1679 553.704 61.2 553.572 61.2 553.392C61.2 553.212 78.108 553.08 98.9879 553.08C119.868 553.08 136.8 553.2 136.8 553.392Z" fill="#263238"/>
<g opacity="0.3">
<path opacity="0.3" d="M76.632 539.772C88.0355 542.382 99.7707 543.236 111.432 542.304C122.964 541.536 134.628 539.844 146.232 539.976L76.632 539.772Z" fill="black"/>
</g>
<g opacity="0.3">
<path opacity="0.3" d="M62.5079 553.572C73.9119 556.179 85.6473 557.029 97.3079 556.092C108.852 555.324 120.504 553.632 132.108 553.776L62.5079 553.572Z" fill="black"/>
</g>
<path d="M74.916 526.908C74.916 527.076 74.496 527.22 73.98 527.22C73.464 527.22 73.032 527.076 73.032 526.908C73.032 526.74 73.452 526.584 73.98 526.584C74.508 526.584 74.916 526.728 74.916 526.908Z" fill="white"/>
<path d="M85.3679 526.944C83.9498 527.251 82.4954 527.356 81.0479 527.256C79.6004 527.356 78.146 527.251 76.7279 526.944C78.145 526.63 79.6004 526.525 81.0479 526.632C82.4954 526.525 83.9508 526.63 85.3679 526.944Z" fill="white"/>
<path d="M97.296 526.944C95.8778 527.251 94.4235 527.356 92.976 527.256C91.5324 527.356 90.0821 527.251 88.668 526.944C90.0811 526.63 91.5324 526.525 92.976 526.632C94.4235 526.525 95.8789 526.63 97.296 526.944Z" fill="white"/>
<path d="M565.716 493.14H484.8V507.84H565.716V493.14Z" fill="#66E4BE"/>
<path d="M492.732 507.936C492.284 503.09 492.284 498.214 492.732 493.368C493.18 498.214 493.18 503.09 492.732 507.936Z" fill="#263238"/>
<path d="M488.304 507.936C487.856 503.09 487.856 498.214 488.304 493.368C488.752 498.214 488.752 503.09 488.304 507.936Z" fill="#263238"/>
<path d="M502.452 507.936C502.004 503.09 502.004 498.214 502.452 493.368C502.9 498.214 502.9 503.09 502.452 507.936Z" fill="#263238"/>
<path d="M498 507.936C497.552 503.09 497.552 498.214 498 493.368C498.464 498.213 498.464 503.091 498 507.936Z" fill="#263238"/>
<path d="M512.184 507.936C511.72 503.091 511.72 498.213 512.184 493.368C512.632 498.214 512.632 503.09 512.184 507.936Z" fill="#263238"/>
<path d="M507.756 507.936C507.308 503.09 507.308 498.214 507.756 493.368C508.204 498.214 508.204 503.09 507.756 507.936Z" fill="#263238"/>
<path d="M521.904 507.936C521.456 503.09 521.456 498.214 521.904 493.368C522.352 498.214 522.352 503.09 521.904 507.936Z" fill="#263238"/>
<path d="M517.476 507.936C517.028 503.09 517.028 498.214 517.476 493.368C517.924 498.214 517.924 503.09 517.476 507.936Z" fill="#263238"/>
<path d="M531.6 507.936C531.152 503.09 531.152 498.214 531.6 493.368C532.048 498.214 532.048 503.09 531.6 507.936Z" fill="#263238"/>
<path d="M527.196 507.936C526.748 503.09 526.748 498.214 527.196 493.368C527.644 498.214 527.644 503.09 527.196 507.936Z" fill="#263238"/>
<path d="M541.344 507.936C540.896 503.09 540.896 498.214 541.344 493.368C541.792 498.214 541.792 503.09 541.344 507.936Z" fill="#263238"/>
<path d="M536.916 507.936C536.468 503.09 536.468 498.214 536.916 493.368C537.38 498.213 537.38 503.091 536.916 507.936Z" fill="#263238"/>
<path d="M551.076 507.936C550.628 503.09 550.628 498.214 551.076 493.368C551.524 498.214 551.524 503.09 551.076 507.936Z" fill="#263238"/>
<path d="M546.648 507.936C546.2 503.09 546.2 498.214 546.648 493.368C547.096 498.214 547.096 503.09 546.648 507.936Z" fill="#263238"/>
<path d="M560.796 507.936C560.348 503.09 560.348 498.214 560.796 493.368C561.244 498.214 561.244 503.09 560.796 507.936Z" fill="#263238"/>
<path d="M556.368 507.936C555.92 503.09 555.92 498.214 556.368 493.368C556.816 498.214 556.816 503.09 556.368 507.936Z" fill="#263238"/>
<path d="M565.728 493.2C565.728 493.392 547.524 493.536 525.072 493.536C502.62 493.536 484.428 493.392 484.428 493.2C484.428 493.008 502.62 492.864 525.072 492.864C547.524 492.864 565.728 492.96 565.728 493.2Z" fill="#263238"/>
<path d="M560.424 508.068H479.508V522.768H560.424V508.068Z" fill="#66E4BE"/>
<path d="M487.44 522.864C486.992 518.014 486.992 513.134 487.44 508.284C487.888 513.134 487.888 518.014 487.44 522.864Z" fill="#263238"/>
<path d="M483.012 522.864C482.564 518.014 482.564 513.134 483.012 508.284C483.46 513.134 483.46 518.014 483.012 522.864Z" fill="#263238"/>
<path d="M497.16 522.864C496.712 518.014 496.712 513.134 497.16 508.284C497.608 513.134 497.608 518.014 497.16 522.864Z" fill="#263238"/>
<path d="M492.732 522.864C492.284 518.014 492.284 513.134 492.732 508.284C493.18 513.134 493.18 518.014 492.732 522.864Z" fill="#263238"/>
<path d="M506.88 522.864C506.432 518.014 506.432 513.134 506.88 508.284C507.328 513.134 507.328 518.014 506.88 522.864Z" fill="#263238"/>
<path d="M502.452 522.864C502.004 518.014 502.004 513.134 502.452 508.284C502.9 513.134 502.9 518.014 502.452 522.864Z" fill="#263238"/>
<path d="M516.6 522.864C516.152 518.014 516.152 513.134 516.6 508.284C517.048 513.134 517.048 518.014 516.6 522.864Z" fill="#263238"/>
<path d="M512.184 522.864C511.72 518.015 511.72 513.133 512.184 508.284C512.632 513.134 512.632 518.014 512.184 522.864Z" fill="#263238"/>
<path d="M526.332 522.864C525.884 518.014 525.884 513.134 526.332 508.284C526.78 513.134 526.78 518.014 526.332 522.864Z" fill="#263238"/>
<path d="M521.904 522.864C521.456 518.014 521.456 513.134 521.904 508.284C522.352 513.134 522.352 518.014 521.904 522.864Z" fill="#263238"/>
<path d="M536.052 522.864C535.604 518.014 535.604 513.134 536.052 508.284C536.5 513.134 536.5 518.014 536.052 522.864Z" fill="#263238"/>
<path d="M531.6 522.864C531.152 518.014 531.152 513.134 531.6 508.284C532.048 513.134 532.048 518.014 531.6 522.864Z" fill="#263238"/>
<path d="M545.772 522.864C545.324 518.014 545.324 513.134 545.772 508.284C546.22 513.134 546.22 518.014 545.772 522.864Z" fill="#263238"/>
<path d="M541.344 522.864C540.896 518.014 540.896 513.134 541.344 508.284C541.792 513.134 541.792 518.014 541.344 522.864Z" fill="#263238"/>
<path d="M555.492 522.864C555.044 518.014 555.044 513.134 555.492 508.284C555.94 513.134 555.94 518.014 555.492 522.864Z" fill="#263238"/>
<path d="M551.076 522.864C550.628 518.014 550.628 513.134 551.076 508.284C551.524 513.134 551.524 518.014 551.076 522.864Z" fill="#263238"/>
<path d="M560.4 508.068C560.4 508.26 542.208 508.404 519.756 508.404C497.304 508.404 479.112 508.26 479.112 508.068C479.112 507.876 497.304 507.732 519.756 507.732C542.208 507.732 560.4 507.888 560.4 508.068Z" fill="#263238"/>
<path d="M567.036 522.864H486.12V537.564H567.036V522.864Z" fill="#66E4BE"/>
<path d="M494.052 537.66C493.604 532.81 493.604 527.93 494.052 523.08C494.5 527.93 494.5 532.81 494.052 537.66Z" fill="#263238"/>
<path d="M489.6 537.66C489.152 532.81 489.152 527.93 489.6 523.08C490.048 527.93 490.048 532.81 489.6 537.66Z" fill="#263238"/>
<path d="M503.772 537.66C503.324 532.81 503.324 527.93 503.772 523.08C504.22 527.93 504.22 532.81 503.772 537.66Z" fill="#263238"/>
<path d="M499.344 537.66C498.896 532.81 498.896 527.93 499.344 523.08C499.792 527.93 499.792 532.81 499.344 537.66Z" fill="#263238"/>
<path d="M513.492 537.66C513.044 532.81 513.044 527.93 513.492 523.08C513.94 527.93 513.94 532.81 513.492 537.66Z" fill="#263238"/>
<path d="M509.064 537.66C508.616 532.81 508.616 527.93 509.064 523.08C509.512 527.93 509.512 532.81 509.064 537.66Z" fill="#263238"/>
<path d="M523.2 537.66C522.752 532.81 522.752 527.93 523.2 523.08C523.664 527.929 523.664 532.811 523.2 537.66Z" fill="#263238"/>
<path d="M518.796 537.66C518.348 532.81 518.348 527.93 518.796 523.08C519.244 527.93 519.244 532.81 518.796 537.66Z" fill="#263238"/>
<path d="M532.944 537.66C532.496 532.81 532.496 527.93 532.944 523.08C533.392 527.93 533.392 532.81 532.944 537.66Z" fill="#263238"/>
<path d="M528.516 537.66C528.068 532.81 528.068 527.93 528.516 523.08C528.964 527.93 528.964 532.81 528.516 537.66Z" fill="#263238"/>
<path d="M542.664 537.66C542.216 532.81 542.216 527.93 542.664 523.08C543.112 527.93 543.112 532.81 542.664 537.66Z" fill="#263238"/>
<path d="M538.236 537.66C537.788 532.81 537.788 527.93 538.236 523.08C538.684 527.93 538.684 532.81 538.236 537.66Z" fill="#263238"/>
<path d="M552.384 537.66C551.936 532.81 551.936 527.93 552.384 523.08C552.832 527.93 552.832 532.81 552.384 537.66Z" fill="#263238"/>
<path d="M547.956 537.66C547.508 532.81 547.508 527.93 547.956 523.08C548.404 527.93 548.404 532.81 547.956 537.66Z" fill="#263238"/>
<path d="M562.104 537.66C561.656 532.81 561.656 527.93 562.104 523.08C562.568 527.929 562.568 532.811 562.104 537.66Z" fill="#263238"/>
<path d="M557.688 537.66C557.24 532.81 557.24 527.93 557.688 523.08C558.136 527.93 558.136 532.81 557.688 537.66Z" fill="#263238"/>
<path d="M567.036 522.864C567.036 523.056 548.796 523.2 526.296 523.2C503.796 523.2 485.496 523.056 485.496 522.864C485.496 522.672 503.736 522.528 526.296 522.528C548.856 522.528 567.036 522.684 567.036 522.864Z" fill="#263238"/>
<path d="M560.688 537.444H479.772V552.144H560.688V537.444Z" fill="#66E4BE"/>
<path d="M487.704 552.24C487.256 547.39 487.256 542.51 487.704 537.66C488.152 542.51 488.152 547.39 487.704 552.24Z" fill="#263238"/>
<path d="M483.276 552.24C482.828 547.39 482.828 542.51 483.276 537.66C483.724 542.51 483.724 547.39 483.276 552.24Z" fill="#263238"/>
<path d="M497.424 552.24C496.976 547.39 496.976 542.51 497.424 537.66C497.872 542.51 497.872 547.39 497.424 552.24Z" fill="#263238"/>
<path d="M492.996 552.24C492.548 547.39 492.548 542.51 492.996 537.66C493.46 542.509 493.46 547.391 492.996 552.24Z" fill="#263238"/>
<path d="M507.156 552.24C506.708 547.39 506.708 542.51 507.156 537.66C507.604 542.51 507.604 547.39 507.156 552.24Z" fill="#263238"/>
<path d="M502.728 552.24C502.28 547.39 502.28 542.51 502.728 537.66C503.176 542.51 503.176 547.39 502.728 552.24Z" fill="#263238"/>
<path d="M516.876 552.24C516.428 547.39 516.428 542.51 516.876 537.66C517.324 542.51 517.324 547.39 516.876 552.24Z" fill="#263238"/>
<path d="M512.4 552.24C511.952 547.39 511.952 542.51 512.4 537.66C512.848 542.51 512.848 547.39 512.4 552.24Z" fill="#263238"/>
<path d="M526.596 552.24C526.148 547.39 526.148 542.51 526.596 537.66C527.044 542.51 527.044 547.39 526.596 552.24Z" fill="#263238"/>
<path d="M522.168 552.24C521.72 547.39 521.72 542.51 522.168 537.66C522.616 542.51 522.616 547.39 522.168 552.24Z" fill="#263238"/>
<path d="M536.316 552.24C535.868 547.39 535.868 542.51 536.316 537.66C536.764 542.51 536.764 547.39 536.316 552.24Z" fill="#263238"/>
<path d="M531.9 552.24C531.436 547.391 531.436 542.509 531.9 537.66C532.348 542.51 532.348 547.39 531.9 552.24Z" fill="#263238"/>
<path d="M546 552.24C545.552 547.39 545.552 542.51 546 537.66C546.448 542.51 546.448 547.39 546 552.24Z" fill="#263238"/>
<path d="M541.62 552.24C541.172 547.39 541.172 542.51 541.62 537.66C542.068 542.51 542.068 547.39 541.62 552.24Z" fill="#263238"/>
<path d="M555.768 552.24C555.32 547.39 555.32 542.51 555.768 537.66C556.216 542.51 556.216 547.39 555.768 552.24Z" fill="#263238"/>
<path d="M551.34 552.24C550.892 547.39 550.892 542.51 551.34 537.66C551.788 542.51 551.788 547.39 551.34 552.24Z" fill="#263238"/>
<path d="M560.7 537.444C560.7 537.636 542.496 537.78 520.044 537.78C497.592 537.78 479.4 537.636 479.4 537.444C479.4 537.252 497.592 537.108 520.044 537.108C542.496 537.108 560.7 537.264 560.7 537.444Z" fill="#263238"/>
<path d="M568.8 552.348H487.884V567.048H568.8V552.348Z" fill="#66E4BE"/>
<path d="M495.816 567.144C495.368 562.294 495.368 557.414 495.816 552.564C496.264 557.414 496.264 562.294 495.816 567.144Z" fill="#263238"/>
<path d="M491.388 567.144C490.94 562.294 490.94 557.414 491.388 552.564C491.836 557.414 491.836 562.294 491.388 567.144Z" fill="#263238"/>
<path d="M505.536 567.144C505.088 562.294 505.088 557.414 505.536 552.564C505.984 557.414 505.984 562.294 505.536 567.144Z" fill="#263238"/>
<path d="M501.108 567.144C500.66 562.294 500.66 557.414 501.108 552.564C501.556 557.414 501.556 562.294 501.108 567.144Z" fill="#263238"/>
<path d="M515.256 567.144C514.808 562.294 514.808 557.414 515.256 552.564C515.704 557.414 515.704 562.294 515.256 567.144Z" fill="#263238"/>
<path d="M510.84 567.144C510.376 562.295 510.376 557.413 510.84 552.564C511.288 557.414 511.288 562.294 510.84 567.144Z" fill="#263238"/>
<path d="M524.988 567.144C524.54 562.294 524.54 557.414 524.988 552.564C525.436 557.414 525.436 562.294 524.988 567.144Z" fill="#263238"/>
<path d="M520.56 567.144C520.112 562.294 520.112 557.414 520.56 552.564C521.008 557.414 521.008 562.294 520.56 567.144Z" fill="#263238"/>
<path d="M534.708 567.144C534.26 562.294 534.26 557.414 534.708 552.564C535.156 557.414 535.156 562.294 534.708 567.144Z" fill="#263238"/>
<path d="M530.28 567.144C529.832 562.294 529.832 557.414 530.28 552.564C530.728 557.414 530.728 562.294 530.28 567.144Z" fill="#263238"/>
<path d="M544.428 567.144C543.98 562.294 543.98 557.414 544.428 552.564C544.876 557.414 544.876 562.294 544.428 567.144Z" fill="#263238"/>
<path d="M540 567.144C539.552 562.294 539.552 557.414 540 552.564C540.448 557.414 540.448 562.294 540 567.144Z" fill="#263238"/>
<path d="M554.148 567.144C553.7 562.294 553.7 557.414 554.148 552.564C554.596 557.414 554.596 562.294 554.148 567.144Z" fill="#263238"/>
<path d="M549.732 567.144C549.284 562.294 549.284 557.414 549.732 552.564C550.18 557.414 550.18 562.294 549.732 567.144Z" fill="#263238"/>
<path d="M563.88 567.144C563.432 562.294 563.432 557.414 563.88 552.564C564.328 557.414 564.328 562.294 563.88 567.144Z" fill="#263238"/>
<path d="M559.452 567.144C559.004 562.294 559.004 557.414 559.452 552.564C559.9 557.414 559.9 562.294 559.452 567.144Z" fill="#263238"/>
<path d="M568.8 552.348C568.8 552.54 550.608 552.684 528.156 552.684C505.704 552.684 487.512 552.54 487.512 552.348C487.512 552.156 505.704 552.012 528.156 552.012C550.608 552.012 568.8 552.168 568.8 552.348Z" fill="#263238"/>
<g opacity="0.3">
<path opacity="0.3" d="M486.12 522.864C498.368 525.675 510.973 526.598 523.5 525.6C535.92 524.772 548.46 522.948 560.904 523.092L486.12 522.864Z" fill="black"/>
</g>
<g opacity="0.3">
<path opacity="0.3" d="M486.852 508.236C499.101 511.043 511.706 511.962 524.232 510.96C536.652 510.132 549.192 508.308 561.636 508.452L486.852 508.236Z" fill="black"/>
</g>
<g opacity="0.3">
<path opacity="0.3" d="M490.8 537.6C503.049 540.407 515.654 541.325 528.18 540.324C540.6 539.496 553.14 537.672 565.584 537.828L490.8 537.6Z" fill="black"/>
</g>
<g opacity="0.3">
<path opacity="0.3" d="M487.596 552.264C499.846 555.061 512.451 555.975 524.976 554.976C537.396 554.16 549.936 552.324 562.38 552.48L487.596 552.264Z" fill="black"/>
</g>
<path d="M486.288 503.196C485.84 500.531 485.84 497.809 486.288 495.144C486.736 497.809 486.736 500.531 486.288 503.196Z" fill="white"/>
<path d="M481.2 518.892C480.752 516.033 480.752 513.123 481.2 510.264C481.648 513.123 481.648 516.033 481.2 518.892Z" fill="white"/>
<path d="M488.4 534C487.952 531.468 487.952 528.876 488.4 526.344C488.848 528.876 488.848 531.468 488.4 534Z" fill="white"/>
<path d="M480.984 547.944C480.536 545.678 480.536 543.346 480.984 541.08C481.432 543.346 481.432 545.678 480.984 547.944Z" fill="white"/>
<path d="M510.624 509.28C510.624 509.46 504.624 509.616 497.28 509.616C489.936 509.616 483.936 509.46 483.936 509.28C488.375 508.941 492.829 508.828 497.28 508.944C501.731 508.828 506.185 508.941 510.624 509.28Z" fill="white"/>
<path d="M519.264 495.144C514.789 495.483 510.299 495.596 505.812 495.48C501.329 495.596 496.843 495.484 492.372 495.144C492.372 494.964 498.372 494.808 505.812 494.808C513.252 494.808 519.264 494.964 519.264 495.144Z" fill="white"/>
<path d="M532.212 495.348C529.285 495.796 526.307 495.796 523.38 495.348C526.307 494.9 529.285 494.9 532.212 495.348Z" fill="white"/>
<path d="M120.984 190.44L155.088 207.972L204.636 175.656L221.268 195.96L168.504 237.672L131.328 237.684L108.168 204.84L120.984 190.44Z" fill="#455A64"/>
<path d="M131.316 237.72L108.12 204.84L120.948 190.44L155.04 207.972L204.6 175.656L221.244 195.972L168.444 237.696H131.244L131.316 237.72Z" fill="#455A64"/>
<g opacity="0.3">
<path opacity="0.3" d="M120.984 190.44L155.088 207.972L205.416 174.66L221.268 195.96L168.504 237.672L131.328 237.684L108.168 204.84L120.984 190.44Z" fill="black"/>
</g>
<path d="M302.556 191.172C297.735 203.058 289.496 213.246 278.881 220.446C268.265 227.646 255.752 231.534 242.926 231.617C230.1 231.7 217.538 227.975 206.83 220.913C196.123 213.851 187.752 203.77 182.778 191.948C177.803 180.125 176.45 167.092 178.888 154.499C181.327 141.907 187.447 130.321 196.475 121.21C205.503 112.098 217.032 105.871 229.601 103.316C242.171 100.762 255.216 101.995 267.084 106.86C282.964 113.342 295.621 125.864 302.272 141.674C308.924 157.483 309.026 175.287 302.556 191.172Z" fill="#66E4BE"/>
<path d="M288.288 185.34C284.611 194.386 278.334 202.137 270.25 207.613C262.165 213.09 252.638 216.044 242.874 216.103C233.11 216.162 223.548 213.323 215.398 207.945C207.248 202.567 200.877 194.892 197.092 185.892C193.306 176.891 192.275 166.97 194.131 157.383C195.986 147.797 200.644 138.977 207.515 132.039C214.386 125.101 223.16 120.357 232.728 118.409C242.296 116.46 252.227 117.394 261.264 121.092C273.366 126.03 283.011 135.573 288.078 147.621C293.146 159.669 293.221 173.236 288.288 185.34Z" fill="#66E4BE"/>
<path d="M288.288 185.34C288.342 185.075 288.415 184.815 288.504 184.56L289.2 182.4C289.356 181.908 289.548 181.356 289.74 180.768C289.932 180.18 290.052 179.472 290.22 178.74C290.665 177.07 290.986 175.369 291.18 173.652C291.845 168.955 291.793 164.185 291.024 159.504C289.288 148.272 283.701 137.994 275.22 130.428C266.739 122.862 255.892 118.48 244.536 118.032C242.215 117.933 239.89 117.989 237.576 118.2C236.376 118.32 235.248 118.56 234.084 118.728C232.9 118.897 231.729 119.15 230.58 119.484C225.848 120.621 221.33 122.513 217.2 125.088C212.852 127.708 208.955 131.01 205.656 134.868C198.752 142.83 194.654 152.839 193.992 163.356C193.638 168.426 194.104 173.519 195.372 178.44C195.98 180.836 196.746 183.189 197.664 185.484C198.643 187.701 199.761 189.853 201.012 191.928C202.245 193.957 203.612 195.902 205.104 197.748C206.59 199.518 208.194 201.186 209.904 202.74C218.329 210.365 229.137 214.832 240.487 215.381C251.837 215.931 263.026 212.528 272.148 205.752C275.972 202.948 279.35 199.582 282.168 195.768C283.232 194.408 284.194 192.972 285.048 191.472C285.444 190.824 285.828 190.272 286.128 189.684L286.884 188.136L287.928 186.036C288.037 185.794 288.165 185.561 288.312 185.34C288.231 185.594 288.135 185.842 288.024 186.084C287.784 186.612 287.472 187.284 287.076 188.232L286.356 189.816C286.068 190.38 285.696 191.016 285.312 191.628C284.485 193.158 283.542 194.622 282.492 196.008C279.701 199.899 276.33 203.339 272.496 206.208C266.88 210.457 260.424 213.464 253.558 215.028C246.691 216.592 239.57 216.678 232.668 215.28C223.955 213.487 215.877 209.402 209.268 203.448C205.665 200.282 202.584 196.569 200.136 192.444C198.85 190.329 197.704 188.132 196.704 185.868C195.747 183.523 194.946 181.118 194.304 178.668C193.001 173.647 192.518 168.447 192.876 163.272C193.557 152.535 197.738 142.318 204.78 134.184C208.159 130.251 212.145 126.885 216.588 124.212C218.747 122.905 220.992 121.746 223.308 120.744C225.618 119.824 227.987 119.062 230.4 118.464C231.581 118.129 232.784 117.876 234 117.708C235.2 117.528 236.4 117.3 237.6 117.18C239.957 116.963 242.327 116.907 244.692 117.012C253.577 117.4 262.197 120.15 269.664 124.98C275.547 128.829 280.546 133.885 284.327 139.812C288.109 145.739 290.588 152.402 291.6 159.36C292.333 164.092 292.333 168.908 291.6 173.64C291.38 175.369 291.027 177.078 290.544 178.752C290.352 179.484 290.208 180.168 290.016 180.78L289.416 182.4L288.588 184.608C288.505 184.858 288.404 185.103 288.288 185.34Z" fill="#263238"/>
<g opacity="0.3">
<path opacity="0.3" d="M287.736 185.676C287.46 185.568 288.084 183.48 288.792 179.676C289.788 174.358 289.958 168.918 289.296 163.548C288.834 159.863 287.965 156.241 286.704 152.748C285.257 148.783 283.301 145.024 280.884 141.564C278.236 137.753 275.042 134.352 271.404 131.472C269.489 129.953 267.459 128.584 265.332 127.38C260.948 124.885 256.191 123.11 251.244 122.124C248.846 121.645 246.415 121.352 243.972 121.248C239.331 121.054 234.687 121.535 230.184 122.676C226.092 123.712 222.152 125.273 218.46 127.32C215.234 129.128 212.216 131.285 209.46 133.752C205.432 137.417 201.995 141.684 199.272 146.4C197.328 149.724 196.428 151.716 196.152 151.608C195.876 151.5 196.38 149.364 197.988 145.728C200.31 140.576 203.565 135.897 207.588 131.928C213.636 125.95 221.12 121.628 229.32 119.376C231.679 118.714 234.086 118.241 236.52 117.96C239.05 117.638 241.603 117.522 244.152 117.612C246.792 117.701 249.42 118.001 252.012 118.512C254.676 119.048 257.296 119.786 259.848 120.72C262.385 121.682 264.844 122.837 267.204 124.176C269.496 125.487 271.679 126.979 273.732 128.64C275.719 130.235 277.573 131.989 279.276 133.884C280.917 135.691 282.417 137.62 283.764 139.656C288.481 146.693 291.303 154.826 291.96 163.272C292.425 168.931 291.839 174.627 290.232 180.072C289.044 183.828 288 185.748 287.736 185.676Z" fill="black"/>
</g>
<g opacity="0.3">
<path opacity="0.3" d="M236.64 196.008L233.496 204L226.296 201.192L229.356 193.404C222.444 190.2 216.528 185.328 213.756 180.708L221.1 173.508C224.081 177.983 228.175 181.606 232.98 184.02L237.66 172.092C230.46 167.052 222.66 160.932 226.668 150.72C229.644 143.148 237.696 138.804 249.468 141.948L252.588 134.016L259.728 136.812L256.8 144.636C261.803 146.928 266.191 150.375 269.604 154.692L262.584 162.072C259.984 158.804 256.762 156.084 253.104 154.068L248.304 166.212C255.504 171.18 263.184 177.252 259.236 187.32C256.344 194.748 248.4 199.056 236.64 196.008ZM241.884 161.628L245.868 151.476C241.74 150.852 239.424 152.34 238.5 154.692C237.576 157.044 239.136 159.396 241.884 161.628ZM247.416 183.672C248.4 181.164 246.864 178.992 244.212 176.712L240.336 186.576C244.224 187.2 246.516 186 247.416 183.672Z" fill="black"/>
</g>
<path d="M77.352 132.96L82.692 186C83.604 195.024 86.784 208.08 100.968 205.992C113.148 203.256 115.092 191.208 114.24 182.796C113.832 178.8 113.496 175.476 113.484 175.068C113.484 175.068 126.852 172.428 126.48 158.976C126.3 152.472 124.836 139.104 123.372 127.032C122.62 120.773 119.537 115.027 114.737 110.94C109.938 106.852 103.775 104.723 97.476 104.976H96.18C82.212 106.404 75.6 119.04 77.352 132.96Z" fill="#FFBE9D"/>
<path d="M113.484 175.044C107.27 175.271 101.121 173.718 95.76 170.568C95.76 170.568 100.428 180.168 113.76 178.464L113.484 175.044Z" fill="#EB996E"/>
<path d="M101.208 135.048C100.98 135.348 99.2999 134.292 97.0559 134.484C94.8119 134.676 93.2759 135.96 92.9999 135.684C92.7239 135.408 93.0959 135.048 93.7679 134.484C94.667 133.712 95.7901 133.25 96.9719 133.164C98.142 133.059 99.3143 133.341 100.308 133.968C101.052 134.4 101.328 134.916 101.208 135.048Z" fill="#263238"/>
<path d="M101.664 140.604C101.691 141.077 101.531 141.541 101.219 141.898C100.907 142.255 100.468 142.475 99.996 142.512C99.7654 142.54 99.5315 142.522 99.3081 142.459C99.0846 142.395 98.8761 142.287 98.695 142.142C98.5138 141.997 98.3635 141.816 98.2531 141.612C98.1427 141.408 98.0743 141.183 98.052 140.952C98.0287 140.478 98.1912 140.013 98.5049 139.657C98.8185 139.301 99.2588 139.081 99.732 139.044C99.9619 139.016 100.195 139.034 100.418 139.098C100.641 139.161 100.848 139.269 101.029 139.415C101.209 139.56 101.358 139.74 101.467 139.945C101.576 140.149 101.643 140.373 101.664 140.604Z" fill="#263238"/>
<path d="M108.564 150C109.642 149.617 110.762 149.367 111.9 149.256C112.428 149.184 112.92 149.064 112.992 148.692C113.016 148.145 112.869 147.604 112.572 147.144C112.032 145.944 111.456 144.576 110.856 143.184C108.456 137.556 106.704 132.912 106.932 132.816C107.16 132.72 109.332 137.208 111.732 142.848L113.388 146.832C113.744 147.457 113.872 148.187 113.748 148.896C113.676 149.084 113.564 149.254 113.419 149.393C113.273 149.532 113.099 149.637 112.908 149.7C112.62 149.791 112.322 149.844 112.02 149.856C110.88 150.058 109.717 150.106 108.564 150Z" fill="#263238"/>
<path d="M99.312 126.768C99.144 127.284 97.32 127.116 95.184 127.464C93.048 127.812 91.356 128.496 91.056 128.04C90.912 127.824 91.2 127.332 91.872 126.84C92.775 126.206 93.8154 125.795 94.908 125.64C95.9975 125.466 97.1129 125.556 98.16 125.904C98.964 126.132 99.372 126.516 99.312 126.768Z" fill="#263238"/>
<path d="M120.984 128.496C120.792 128.928 119.004 128.676 116.88 128.856C114.756 129.036 113.04 129.492 112.776 129.096C112.656 128.904 112.956 128.508 113.652 128.1C114.612 127.608 115.661 127.313 116.738 127.235C117.814 127.157 118.895 127.296 119.916 127.644C120.684 127.944 121.068 128.292 120.984 128.496Z" fill="#263238"/>
<path d="M78.8399 142.872C78.6119 142.776 69.492 140.472 70.152 149.688C70.812 158.904 79.896 156.312 79.896 156.048C79.896 155.784 78.8399 142.872 78.8399 142.872Z" fill="#FFBE9D"/>
<path d="M76.8 152.772C76.8 152.772 76.656 152.904 76.392 153.048C76.0197 153.233 75.5913 153.272 75.192 153.156C74.196 152.868 73.272 151.38 73.104 149.736C73.0234 148.948 73.1218 148.152 73.392 147.408C73.4581 147.116 73.5942 146.844 73.7886 146.616C73.983 146.388 74.2299 146.211 74.508 146.1C74.6878 146.037 74.8842 146.039 75.0623 146.107C75.2403 146.176 75.3884 146.305 75.48 146.472C75.624 146.712 75.576 146.904 75.624 146.916C75.672 146.928 75.816 146.748 75.708 146.376C75.6457 146.151 75.5053 145.955 75.312 145.824C75.046 145.651 74.7224 145.591 74.412 145.656C74.0402 145.756 73.7004 145.949 73.4251 146.218C73.1498 146.487 72.9483 146.823 72.84 147.192C72.5051 148.017 72.3774 148.911 72.468 149.796C72.66 151.644 73.74 153.312 75.096 153.6C75.3469 153.651 75.6058 153.646 75.8546 153.586C76.1034 153.526 76.3359 153.412 76.536 153.252C76.8 153 76.872 152.796 76.8 152.772Z" fill="#EB996E"/>
<path d="M107.124 156.528C107.196 156.288 105.348 155.952 103.896 154.416C103.29 153.737 102.773 152.983 102.36 152.172C102.024 151.536 101.772 151.14 101.676 151.188C101.58 151.236 101.676 151.668 101.892 152.388C102.192 153.334 102.696 154.202 103.368 154.932C104.057 155.661 104.933 156.188 105.9 156.456C106.632 156.648 107.112 156.612 107.124 156.528Z" fill="#263238"/>
<path d="M121.668 133.584C121.428 133.884 119.748 132.816 117.504 133.02C115.26 133.224 113.724 134.496 113.46 134.22C113.196 133.944 113.544 133.584 114.216 133.02C115.126 132.258 116.249 131.797 117.432 131.7C118.602 131.603 119.771 131.884 120.768 132.504C121.5 132.972 121.776 133.452 121.668 133.584Z" fill="#263238"/>
<path d="M120.492 139.476C120.515 139.95 120.353 140.415 120.039 140.771C119.725 141.127 119.285 141.347 118.812 141.384C118.581 141.411 118.348 141.391 118.125 141.326C117.902 141.261 117.695 141.152 117.515 141.005C117.335 140.859 117.186 140.678 117.077 140.473C116.968 140.268 116.901 140.043 116.88 139.812C116.857 139.341 117.018 138.88 117.329 138.526C117.641 138.172 118.078 137.953 118.548 137.916C118.779 137.886 119.013 137.903 119.238 137.966C119.462 138.029 119.671 138.136 119.852 138.282C120.034 138.428 120.184 138.608 120.294 138.814C120.404 139.019 120.471 139.244 120.492 139.476Z" fill="#263238"/>
<path d="M130.668 108.252C129.6 106.868 128.065 105.919 126.349 105.584C124.634 105.248 122.855 105.548 121.344 106.428C121.529 104.256 120.996 102.084 119.825 100.245C118.654 98.4066 116.911 97.0041 114.865 96.2537C112.818 95.5034 110.582 95.4468 108.5 96.0927C106.418 96.7385 104.606 98.0511 103.344 99.828C103.162 99.2758 102.865 98.7686 102.472 98.3403C102.079 97.9119 101.599 97.5723 101.064 97.344C99.9895 96.8977 98.8302 96.6929 97.6679 96.744C94.9073 96.749 92.1963 97.4787 89.8061 98.8602C87.416 100.242 85.4304 102.226 84.0479 104.616C81.3558 104.615 78.7011 105.246 76.2978 106.46C73.8946 107.673 71.8099 109.433 70.2119 111.6C66.4559 116.844 66.8879 127.956 72.6719 136.956L74.4599 142.8C75.7568 142.484 77.1247 142.659 78.2999 143.292C79.6559 144.264 80.4479 146.292 82.4159 145.26C83.4119 144.744 84.1199 142.44 84.3479 141.336C85.8609 133.98 85.7749 126.384 84.0959 119.064C85.4015 117.327 87.0316 115.86 88.8959 114.744L88.7639 114.912C92.3639 113.196 96.4079 111.444 100.14 112.788C103.032 113.832 104.94 116.496 107.28 118.536C109.41 120.417 111.898 121.848 114.596 122.741C117.294 123.634 120.144 123.971 122.976 123.732C123.6 127.464 123.888 132.804 124.5 136.536L126.984 130.164C127.184 129.705 127.36 129.237 127.512 128.76L127.572 128.616C128.188 127.753 128.761 126.86 129.288 125.94C130.092 124.736 130.552 123.334 130.618 121.888C130.683 120.441 130.352 119.004 129.66 117.732C130.955 116.546 131.772 114.929 131.958 113.183C132.143 111.437 131.685 109.683 130.668 108.252Z" fill="#263238"/>
<path d="M128.364 126.348L128.352 126.336L128.364 126.348Z" fill="#263238"/>
<path d="M125.22 109.008C125.22 109.008 125.22 109.008 125.304 109.2C125.379 109.385 125.431 109.579 125.46 109.776C125.577 110.524 125.477 111.291 125.172 111.984C124.964 112.47 124.662 112.91 124.284 113.28C123.84 113.708 123.295 114.017 122.7 114.18C122.008 114.369 121.279 114.377 120.584 114.202C119.888 114.028 119.249 113.677 118.728 113.184L118.932 112.956C119.423 113.398 119.724 114.013 119.772 114.672C119.844 115.54 119.573 116.402 119.016 117.072C118.481 117.691 117.754 118.113 116.952 118.272C115.633 118.524 114.268 118.312 113.088 117.672C112.301 117.256 111.561 116.757 110.88 116.184C110.621 115.99 110.381 115.773 110.16 115.536C110.16 115.536 110.448 115.728 110.952 116.088C111.647 116.617 112.39 117.079 113.172 117.468C114.315 118.064 115.628 118.25 116.892 117.996C117.623 117.848 118.288 117.469 118.788 116.916C119.296 116.303 119.542 115.514 119.472 114.72C119.43 114.135 119.164 113.589 118.728 113.196L118.944 112.98C119.424 113.443 120.015 113.775 120.66 113.943C121.305 114.112 121.983 114.11 122.628 113.94C123.155 113.805 123.645 113.553 124.061 113.202C124.477 112.85 124.807 112.409 125.028 111.912C125.331 111.256 125.455 110.531 125.388 109.812C125.304 109.284 125.196 109.02 125.22 109.008Z" fill="#455A64"/>
<path d="M112.644 100.284C112.715 100.3 112.783 100.324 112.848 100.356C113.041 100.433 113.226 100.53 113.4 100.644C114.063 101.039 114.609 101.602 114.984 102.276C115.26 102.784 115.41 103.352 115.421 103.931C115.431 104.509 115.302 105.082 115.044 105.6C114.726 106.228 114.175 106.706 113.508 106.932C113.154 107.059 112.778 107.112 112.403 107.09C112.027 107.067 111.66 106.968 111.324 106.8C111.116 106.679 110.926 106.53 110.76 106.356L111.012 106.176C111.178 106.491 111.278 106.837 111.305 107.192C111.332 107.547 111.285 107.904 111.168 108.24C110.962 108.871 110.536 109.408 109.968 109.752C109.506 110.031 108.989 110.206 108.452 110.266C107.916 110.326 107.373 110.269 106.86 110.1C106.182 109.875 105.559 109.507 105.036 109.02C104.836 108.855 104.662 108.661 104.52 108.444C104.52 108.444 104.724 108.636 105.108 108.936C105.642 109.373 106.258 109.699 106.92 109.896C107.403 110.041 107.911 110.083 108.412 110.019C108.912 109.954 109.393 109.786 109.824 109.524C110.32 109.197 110.688 108.71 110.868 108.144C110.97 107.848 111.009 107.535 110.984 107.223C110.96 106.911 110.871 106.608 110.724 106.332L110.112 105.264L110.964 106.152C111.109 106.302 111.275 106.431 111.456 106.536C111.752 106.688 112.075 106.78 112.406 106.807C112.738 106.834 113.072 106.795 113.388 106.692C113.985 106.484 114.479 106.054 114.768 105.492C115.017 105.014 115.147 104.483 115.147 103.944C115.147 103.405 115.017 102.874 114.768 102.396C114.423 101.76 113.934 101.213 113.34 100.8C112.908 100.428 112.632 100.308 112.644 100.284Z" fill="#455A64"/>
<path d="M142.416 520.176L141.456 565.776L201.456 567.18C201.24 561.756 170.508 550.164 170.508 550.164L172.392 520.992L142.416 520.176Z" fill="#455A64"/>
<g opacity="0.6">
<path opacity="0.6" d="M152.004 547.2C151.439 547.332 150.943 547.672 150.617 548.152C150.29 548.632 150.156 549.217 150.24 549.792C150.408 550.356 150.777 550.838 151.276 551.148C151.776 551.457 152.373 551.573 152.952 551.472C153.559 551.342 154.091 550.981 154.438 550.467C154.785 549.952 154.919 549.323 154.812 548.712C154.578 548.135 154.137 547.666 153.575 547.397C153.014 547.129 152.372 547.08 151.776 547.26" fill="white"/>
</g>
<g opacity="0.6">
<path opacity="0.6" d="M141.456 565.74L141.744 561.144L199.2 564.216C199.2 564.216 201.84 565.416 201.492 567.144L141.456 565.74Z" fill="white"/>
</g>
<path d="M171.468 549.864C171.468 550.14 169.98 550.224 168.516 551.064C167.052 551.904 166.248 553.056 165.984 552.948C165.72 552.84 166.2 551.244 167.988 550.236C169.776 549.228 171.528 549.6 171.468 549.864Z" fill="#263238"/>
<path d="M177.684 552.468C177.744 552.732 176.484 553.176 175.44 554.328C174.396 555.48 174.096 556.728 173.808 556.728C173.52 556.728 173.364 555.144 174.672 553.74C175.98 552.336 177.684 552.204 177.684 552.468Z" fill="#263238"/>
<path d="M181.068 559.668C180.804 559.668 180.432 558.324 181.224 556.824C182.016 555.324 183.408 554.76 183.516 554.988C183.624 555.216 182.772 556.02 182.136 557.256C181.5 558.492 181.368 559.644 181.068 559.668Z" fill="#263238"/>
<path d="M171.108 543.168C170.988 543.42 169.644 543 167.988 543.072C166.332 543.144 165.024 543.6 164.88 543.36C164.736 543.12 166.008 542.16 167.952 542.16C169.896 542.16 171.264 542.952 171.108 543.168Z" fill="#263238"/>
<path d="M169.86 536.4C168.869 536.621 167.838 536.592 166.86 536.316C165.161 535.972 163.536 535.33 162.06 534.42C161.732 534.238 161.432 534.007 161.172 533.736C160.993 533.536 160.887 533.282 160.87 533.015C160.852 532.747 160.925 532.482 161.076 532.26C161.232 532.067 161.429 531.911 161.654 531.805C161.878 531.699 162.124 531.646 162.372 531.648C162.754 531.657 163.134 531.718 163.5 531.828C164.133 531.991 164.752 532.208 165.348 532.476C166.346 532.922 167.266 533.526 168.072 534.264C169.44 535.464 169.884 536.556 169.776 536.604C169.668 536.652 168.996 535.812 167.604 534.768C166.786 534.169 165.9 533.67 164.964 533.28C164.387 533.081 163.798 532.921 163.2 532.8C162.576 532.632 162 532.608 161.856 532.872C161.712 533.136 161.784 533.016 161.856 533.196C162.051 533.395 162.273 533.564 162.516 533.7C163.017 534.028 163.538 534.324 164.076 534.588C165.001 535.048 165.965 535.425 166.956 535.716C167.94 535.872 168.91 536.1 169.86 536.4Z" fill="#263238"/>
<path d="M169.464 536.796C168.925 535.981 168.672 535.01 168.744 534.036C168.725 532.983 168.892 531.935 169.236 530.94C169.449 530.345 169.722 529.774 170.052 529.236C170.227 528.853 170.5 528.522 170.843 528.278C171.187 528.033 171.589 527.884 172.008 527.844C172.264 527.861 172.511 527.948 172.722 528.093C172.933 528.239 173.101 528.439 173.208 528.672C173.35 529.005 173.443 529.357 173.484 529.716C173.586 530.348 173.586 530.992 173.484 531.624C173.287 532.692 172.821 533.692 172.128 534.528C170.928 535.968 169.728 536.268 169.656 536.172C169.584 536.076 170.604 535.524 171.54 534.132C172.073 533.339 172.421 532.437 172.56 531.492C172.638 530.947 172.638 530.393 172.56 529.848C172.476 529.248 172.248 528.756 172.008 528.804C171.768 528.852 171.192 529.236 170.94 529.716C170.627 530.197 170.362 530.707 170.148 531.24C169.795 532.144 169.573 533.093 169.488 534.06C169.344 535.716 169.632 536.76 169.464 536.796Z" fill="#263238"/>
<path d="M86.256 501.444L61.74 533.688L104.1 566.088C106.8 562.056 90.768 537.6 90.768 537.6L107.364 517.632L86.256 501.444Z" fill="#455A64"/>
<g opacity="0.6">
<path opacity="0.6" d="M78.996 525.9C78.5192 525.697 77.9832 525.682 77.4957 525.858C77.0083 526.034 76.6054 526.387 76.368 526.848C76.1866 527.34 76.197 527.882 76.3971 528.367C76.5972 528.852 76.9724 529.243 77.448 529.464C77.9517 529.679 78.5182 529.694 79.0328 529.507C79.5474 529.32 79.9717 528.944 80.22 528.456C80.3529 527.92 80.2814 527.354 80.0196 526.868C79.7578 526.383 79.3244 526.012 78.804 525.828" fill="white"/>
</g>
<g opacity="0.6">
<path opacity="0.6" d="M61.74 533.688L64.344 530.532L103.944 562.752C103.944 562.752 105.228 564.972 104.052 566.064L61.74 533.688Z" fill="white"/>
</g>
<path d="M91.608 537.96C91.452 538.152 90.408 537.456 88.848 537.3C87.288 537.144 86.172 537.552 86.04 537.3C85.908 537.048 87.084 536.184 88.908 536.4C90.732 536.616 91.788 537.816 91.608 537.96Z" fill="#263238"/>
<path d="M94.716 543.096C94.62 543.312 93.516 542.964 92.136 543.252C90.756 543.54 89.916 544.26 89.736 544.092C89.556 543.924 90.252 542.724 91.92 542.4C93.588 542.076 94.86 542.904 94.716 543.096Z" fill="#263238"/>
<path d="M93.3839 550.032C93.1679 549.936 93.6239 548.736 94.9799 548.076C96.3359 547.416 97.6319 547.728 97.5839 547.956C97.5359 548.184 96.5159 548.304 95.4119 548.856C94.3079 549.408 93.5999 550.176 93.3839 550.032Z" fill="#263238"/>
<path d="M94.7999 532.968C94.5839 533.076 93.8399 532.092 92.6159 531.264C91.3919 530.436 90.2159 530.064 90.2159 529.848C90.2159 529.632 91.6439 529.572 93.0839 530.556C94.5239 531.54 95.0759 532.896 94.7999 532.968Z" fill="#263238"/>
<path d="M97.4879 527.46C97.4879 527.544 96.5159 527.04 95.3759 525.828C94.6975 525.118 94.1017 524.333 93.5999 523.488C93.3209 522.992 93.0725 522.479 92.8559 521.952C92.7107 521.649 92.6136 521.325 92.5679 520.992C92.5391 520.753 92.5938 520.511 92.7229 520.308C92.8519 520.104 93.0473 519.952 93.2759 519.876C93.4822 519.828 93.6966 519.826 93.9038 519.869C94.1111 519.913 94.3064 520.001 94.4759 520.128C94.7474 520.33 94.9897 520.568 95.1959 520.836C95.5668 521.281 95.8961 521.759 96.1799 522.264C96.6625 523.109 97.0106 524.024 97.2119 524.976C97.4802 525.815 97.4802 526.717 97.2119 527.556C97.0679 527.556 97.0559 526.572 96.5999 525.096C96.3254 524.254 95.9507 523.448 95.4839 522.696C95.1984 522.246 94.8816 521.817 94.5359 521.412C94.1759 520.956 93.7919 520.656 93.5279 520.764C93.2639 520.872 93.4079 520.824 93.4079 521.016C93.4462 521.26 93.5148 521.497 93.6119 521.724C94.1362 523.078 94.8558 524.347 95.7479 525.492C96.8159 526.692 97.5719 527.352 97.4879 527.46Z" fill="#263238"/>
<path d="M97.008 527.532C96.912 527.532 97.008 526.488 97.932 525.132C98.4684 524.377 99.1347 523.722 99.9 523.2C100.365 522.885 100.859 522.615 101.376 522.396C101.704 522.217 102.071 522.124 102.444 522.124C102.817 522.124 103.184 522.217 103.512 522.396C103.694 522.532 103.833 522.717 103.914 522.93C103.995 523.142 104.013 523.373 103.968 523.596C103.899 523.912 103.782 524.216 103.62 524.496C103.255 525.172 102.753 525.763 102.145 526.233C101.537 526.702 100.838 527.038 100.092 527.22C99.2327 527.531 98.2863 527.497 97.452 527.124C98.2606 527.005 99.0618 526.841 99.852 526.632C100.658 526.365 101.393 525.918 102 525.324C102.344 524.97 102.631 524.565 102.852 524.124C103.104 523.656 103.2 523.176 103.008 523.092C102.812 523.025 102.604 522.999 102.398 523.015C102.192 523.032 101.991 523.091 101.808 523.188C101.331 523.372 100.873 523.601 100.44 523.872C99.6741 524.338 98.9858 524.921 98.4 525.6C97.476 526.692 97.2 527.592 97.008 527.532Z" fill="#263238"/>
<path d="M93.396 321.396L100.68 345.108C102.544 351.191 105.883 356.719 110.4 361.2C115.104 365.844 120.636 371.352 121.536 372.444L143.664 444.252L138.552 540L176.688 542.592C176.688 542.592 191.688 444.816 189.264 429.684C186.84 414.552 171.456 313.644 171.456 313.644L167.412 306.624L93.396 321.396Z" fill="#263238"/>
<path d="M125.16 375.036L121.296 445.584L70.572 514.524L102.372 536.208L170.784 456.324L171.456 363.912L125.16 375.036Z" fill="#263238"/>
<path d="M121.572 372.468C121.572 372.468 121.572 372.576 121.716 372.792C121.86 373.008 121.92 373.38 122.064 373.788C122.388 374.7 122.82 375.996 123.384 377.628C124.584 381.036 126.144 385.908 128.184 391.956L144.06 440.4V440.46V440.52C143.856 444.648 143.628 448.92 143.4 453.36C142.2 476.628 141 497.688 140.196 512.976C139.752 520.572 139.404 526.728 139.152 531.048C139.008 533.136 138.9 534.78 138.828 535.956C138.828 536.484 138.756 536.904 138.732 537.228C138.722 537.373 138.702 537.518 138.672 537.66C138.651 537.517 138.651 537.371 138.672 537.228C138.672 536.904 138.672 536.472 138.672 535.944C138.672 534.744 138.78 533.124 138.864 531.024C139.068 526.716 139.344 520.548 139.692 512.952C140.46 497.652 141.528 476.592 142.692 453.324C142.92 448.92 143.148 444.612 143.364 440.484V440.616C137.124 421.332 131.628 404.316 127.68 392.076C125.748 386.004 124.188 381.12 123.096 377.676C122.592 376.02 122.184 374.712 121.896 373.788L121.608 372.78C121.582 372.678 121.57 372.573 121.572 372.468Z" fill="#455A64"/>
<path d="M81.1799 180.78C81.1799 180.78 68.6519 200.4 71.0759 216.672C72.2999 224.916 93.5999 308.4 93.5999 308.4L93.3599 337.104L175.056 320.232L166.836 291.12L142.572 205.248L114 181.2L81.1799 180.78Z" fill="#455A64"/>
<g opacity="0.3">
<path opacity="0.3" d="M90.228 222.876C90.228 222.876 129.828 251.112 143.736 250.764L155.568 251.1L153.744 244.68L90.228 222.876Z" fill="black"/>
</g>
<path d="M98.52 227.172C97.5734 227.958 96.5432 228.639 95.448 229.2C90.2676 232.131 84.6405 234.19 78.792 235.296C77.6127 235.578 76.4046 235.723 75.192 235.728C76.374 235.37 77.5761 235.081 78.792 234.864C81.6377 234.185 84.4423 233.343 87.192 232.344C89.9527 231.304 92.6494 230.102 95.268 228.744C96.3206 228.157 97.4065 227.633 98.52 227.172Z" fill="#263238"/>
<path d="M157.512 261C157.512 261.168 141.768 265.356 122.256 270.348C102.744 275.34 86.868 279.252 86.832 279.084C86.796 278.916 102.576 274.74 122.1 269.748C141.624 264.756 157.476 260.844 157.512 261Z" fill="#263238"/>
<path d="M168.612 299.676C168.366 299.758 168.113 299.819 167.856 299.856L165.672 300.264C163.788 300.636 161.052 301.176 157.692 301.932C150.96 303.42 141.732 305.784 131.556 308.46C121.38 311.136 112.164 313.596 105.456 315.204C102.108 316.02 99.384 316.632 97.488 317.028L95.316 317.448C95.0588 317.502 94.7982 317.538 94.536 317.556C94.773 317.448 95.0231 317.371 95.28 317.328L97.44 316.788L105.348 314.772L131.4 307.86C141.576 305.184 150.828 302.88 157.596 301.5C160.968 300.804 163.728 300.3 165.636 300.024L167.832 299.736C168.089 299.687 168.351 299.667 168.612 299.676Z" fill="#263238"/>
<path d="M229.008 191.82C229.334 189.436 230.182 187.154 231.492 185.136C233.712 181.62 239.688 177.612 239.784 174.864C239.88 172.116 242.976 173.292 243.384 176.58C243.612 178.68 241.092 185.1 241.092 185.1C241.092 185.1 246.24 184.86 248.88 182.052C251.52 179.244 261.684 172.596 263.34 173.796C265.224 175.152 262.476 176.628 261.444 177.72C260.652 178.548 254.34 184.452 254.34 184.452C254.34 184.452 268.956 179.508 271.02 179.652C273.276 179.808 271.74 182.22 270.828 182.532C270.24 182.736 272.652 183.732 271.356 185.928C270.48 187.428 264.828 190.584 263.172 191.1L259.752 192.192L270.552 190.14C270.552 190.14 272.856 191.244 270.552 192.864C269.544 193.584 239.352 207.648 236.952 208.536C232.8 210.06 226.788 212.016 226.788 212.016L221.412 194.46L229.008 191.82Z" fill="#FFBE9D"/>
<path d="M270.768 182.532C268.145 184.374 265.353 185.961 262.428 187.272C257.688 189.672 253.632 191.112 253.56 190.872C254.342 190.353 255.174 189.915 256.044 189.564L262.116 186.612L268.188 183.612C269.003 183.153 269.869 182.79 270.768 182.532Z" fill="#EB996E"/>
<path d="M81.6 217.968C81.6 217.968 135.012 250.26 159.888 243.84C184.764 237.42 234.816 214.8 234.816 214.8L223.2 187.764L156.576 211.764C156.576 211.764 108.876 189.468 98.64 186.336C83.628 181.716 63.18 201.6 81.6 217.968Z" fill="#455A64"/>
<path d="M117.516 193.968L118.224 194.208C118.68 194.388 119.424 194.628 120.276 195C122.076 195.708 124.716 196.836 128.112 198.312C134.88 201.3 144.648 205.776 156.732 211.512H156.552L223.14 187.512L223.44 187.404L223.56 187.692L235.2 214.656L235.332 214.968L235.02 215.112L225.324 219.384C215.592 223.632 206.016 227.628 196.716 231.384C187.416 235.14 178.368 238.5 169.596 241.344C167.4 242.016 165.252 242.748 163.068 243.324L159.84 244.212C158.76 244.469 157.666 244.661 156.564 244.788C152.323 245.187 148.047 245.002 143.856 244.236C136.374 242.851 129.044 240.745 121.968 237.948C111.72 233.963 101.739 229.321 92.0879 224.052C88.6679 222.192 86.0879 220.692 84.2759 219.66L82.2839 218.46C81.8279 218.184 81.6119 218.028 81.6119 218.028C81.6119 218.028 81.8639 218.148 82.3199 218.4L84.3479 219.6C86.1359 220.608 88.7759 222.072 92.2199 223.884C101.91 229.046 111.904 233.614 122.148 237.564C129.189 240.26 136.469 242.281 143.892 243.6C148.03 244.336 152.248 244.505 156.432 244.104C157.496 243.993 158.554 243.825 159.6 243.6L162.804 242.712C164.964 242.136 167.112 241.392 169.308 240.72C178.044 237.876 187.068 234.432 196.368 230.736C205.668 227.04 215.22 223.02 224.952 218.736L234.636 214.464L234.468 214.92L222.912 187.884L223.332 188.076L156.672 211.944H156.576H156.492C144.492 206.148 134.7 201.6 127.968 198.54C124.596 197.028 121.968 195.864 120.192 195.108L118.164 194.268C117.744 194.088 117.516 193.968 117.516 193.968Z" fill="#263238"/>
<path d="M108 191.004C107.478 190.842 106.972 190.633 106.488 190.38C105.528 189.96 104.088 189.336 102.396 188.688C100.36 187.91 98.2423 187.363 96.084 187.056C93.4565 186.677 90.7774 186.899 88.248 187.704C85.6699 188.494 83.4173 190.098 81.828 192.276C79.8182 194.484 78.2681 197.071 77.2679 199.884C76.5479 201.96 76.3559 203.244 76.2719 203.232C76.2644 202.922 76.2926 202.612 76.3559 202.308C76.488 201.45 76.6846 200.604 76.9439 199.776C77.8459 196.857 79.3687 194.167 81.4079 191.892C83.0458 189.599 85.3957 187.911 88.092 187.092C90.7113 186.26 93.4881 186.046 96.2039 186.468C98.4011 186.806 100.549 187.411 102.6 188.268C103.981 188.822 105.331 189.451 106.644 190.152C107.124 190.389 107.579 190.674 108 191.004Z" fill="#263238"/>
<path d="M130.596 200.7C130.516 201.182 130.371 201.65 130.164 202.092C129.852 202.968 129.36 204.228 128.736 205.776C127.536 208.872 125.676 213.108 123.504 217.776C121.332 222.444 119.244 226.488 117.66 229.428C116.868 230.904 116.208 232.08 115.728 232.884C115.515 233.312 115.253 233.715 114.948 234.084C115.084 233.62 115.273 233.173 115.512 232.752C115.992 231.804 116.568 230.616 117.264 229.212C118.752 226.236 120.78 222.096 122.94 217.5C125.1 212.904 126.984 208.692 128.328 205.656L129.936 202.056C130.111 201.583 130.332 201.129 130.596 200.7Z" fill="#263238"/>
<path d="M160.992 242.748C160.812 242.748 159.708 236.076 158.52 227.808C157.332 219.54 156.504 212.808 156.672 212.772C156.84 212.736 157.944 219.444 159.144 227.712C160.344 235.98 161.16 242.724 160.992 242.748Z" fill="#263238"/>
<path d="M202.692 228.564C202.424 228.251 202.205 227.899 202.044 227.52C201.66 226.824 201.132 225.816 200.496 224.556C199.2 222.048 197.472 218.556 195.588 214.704C193.704 210.852 191.988 207.324 190.788 204.756C190.2 203.484 189.732 202.44 189.42 201.72C189.225 201.34 189.08 200.937 188.988 200.52C189.248 200.839 189.466 201.19 189.636 201.564C190.02 202.26 190.548 203.268 191.184 204.528C192.468 207.036 194.208 210.528 196.092 214.392C197.976 218.256 199.692 221.772 200.832 224.34C201.42 225.612 201.888 226.656 202.2 227.376C202.412 227.751 202.577 228.15 202.692 228.564Z" fill="#263238"/>
<path d="M201.468 495.612L233.868 567.144H249.504L251.736 561.684L254.52 567.144H264.78L263.58 525.396L263.076 500.724L201.468 495.612Z" fill="#66E4BE"/>
<path opacity="0.3" d="M201.468 495.612L233.868 567.144H249.504L251.736 561.684L254.52 567.144H264.78L263.58 525.396L263.076 500.724L201.468 495.612Z" fill="black"/>
<path d="M343.248 503.28L374.844 567.144H390.48L392.724 562.152L395.496 567.144H405.756L404.568 528.924L404.052 506.34L343.248 503.28Z" fill="#66E4BE"/>
<path opacity="0.3" d="M343.248 503.28L374.844 567.144H390.48L392.724 562.152L395.496 567.144H405.756L404.568 528.924L404.052 506.34L343.248 503.28Z" fill="black"/>
<path d="M522.948 315.06L523.248 315.156L524.088 315.528C525.143 316.053 526.127 316.71 527.016 317.484C528.672 318.91 530.028 320.651 531.004 322.607C531.981 324.562 532.558 326.691 532.704 328.872C532.89 331.914 532.123 334.939 530.508 337.524C528.666 340.503 525.939 342.831 522.708 344.184C520.94 344.971 519.027 345.377 517.092 345.377C515.157 345.377 513.244 344.971 511.476 344.184C509.577 343.292 508.085 341.714 507.3 339.768C506.87 338.772 506.698 337.684 506.798 336.604C506.899 335.524 507.269 334.487 507.876 333.588C508.523 332.725 509.351 332.014 510.303 331.506C511.255 330.998 512.307 330.705 513.384 330.648C515.475 330.566 517.526 331.244 519.156 332.556C520.668 333.776 521.874 335.333 522.678 337.102C523.482 338.87 523.862 340.802 523.788 342.744C523.68 346.254 522.414 349.629 520.188 352.344C519.198 353.574 518.02 354.64 516.696 355.5C515.46 356.256 514.134 356.853 512.748 357.276C510.352 357.966 507.84 358.154 505.368 357.828C503.511 357.595 501.697 357.098 499.98 356.352C498.9 355.879 497.867 355.305 496.896 354.636L496.164 354.084C496.008 353.964 495.924 353.892 495.936 353.88C497.24 354.76 498.627 355.512 500.076 356.124C501.779 356.826 503.573 357.283 505.404 357.48C507.821 357.761 510.271 357.549 512.604 356.856C513.946 356.433 515.228 355.84 516.42 355.092C517.694 354.255 518.824 353.217 519.768 352.02C521.905 349.383 523.112 346.113 523.2 342.72C523.269 340.872 522.904 339.034 522.136 337.352C521.367 335.671 520.215 334.192 518.772 333.036C517.259 331.812 515.352 331.18 513.408 331.26C512.424 331.314 511.464 331.581 510.593 332.043C509.723 332.505 508.964 333.151 508.368 333.936C507.826 334.753 507.497 335.692 507.409 336.668C507.321 337.645 507.477 338.627 507.864 339.528C508.591 341.33 509.971 342.791 511.728 343.62C513.428 344.375 515.268 344.765 517.128 344.765C518.988 344.765 520.828 344.375 522.528 343.62C525.657 342.324 528.304 340.084 530.1 337.212C531.696 334.712 532.465 331.773 532.296 328.812C532.168 326.382 531.487 324.014 530.304 321.888C529.417 320.272 528.265 318.815 526.896 317.58C525.696 316.571 524.369 315.723 522.948 315.06Z" fill="#66E4BE"/>
<path d="M507.48 379.776C512.184 485.916 423.204 538.872 322.476 538.872C221.748 538.872 140.076 469.908 140.076 384.84C140.076 299.772 221.736 230.808 322.476 230.808C423.216 230.808 503.712 294.792 507.48 379.776Z" fill="#66E4BE"/>
<path opacity="0.3" d="M309.768 268.8C309.768 268.8 321.864 264.96 333.18 277.752C344.496 290.544 360.24 312.336 360.24 312.336C358.824 319.428 354.684 324.96 346.656 328.248L309.768 268.8Z" fill="black"/>
<path d="M202.56 495.192C237.049 495.192 265.008 473.766 265.008 447.336C265.008 420.906 237.049 399.48 202.56 399.48C168.071 399.48 140.112 420.906 140.112 447.336C140.112 473.766 168.071 495.192 202.56 495.192Z" fill="#66E4BE"/>
<path d="M260.796 319.404C260.796 319.404 297.396 262.62 314.16 268.776C330.924 274.932 346.656 328.296 346.656 328.296" fill="#66E4BE"/>
<path d="M219.408 306.384L217.704 291.012C217.704 291.012 194.784 281.412 174.264 276.744C153.744 272.076 149.7 276.744 149.7 276.744L182.16 322.236L219.408 306.384Z" fill="#66E4BE"/>
<path opacity="0.3" d="M268.26 251.928L280.404 259.128C280.404 259.128 339.204 243.528 384.396 259.128L367.824 245.016C367.824 245.016 313.044 233.256 268.26 251.928Z" fill="black"/>
<path opacity="0.3" d="M202.56 495.192C237.049 495.192 265.008 473.766 265.008 447.336C265.008 420.906 237.049 399.48 202.56 399.48C168.071 399.48 140.112 420.906 140.112 447.336C140.112 473.766 168.071 495.192 202.56 495.192Z" fill="black"/>
<path d="M186.684 495.192C218.993 495.192 245.184 473.766 245.184 447.336C245.184 420.906 218.993 399.48 186.684 399.48C154.375 399.48 128.184 420.906 128.184 447.336C128.184 473.766 154.375 495.192 186.684 495.192Z" fill="#66E4BE"/>
<path opacity="0.3" d="M166.464 424.896H161.964C159.75 424.896 157.956 426.69 157.956 428.904V465.792C157.956 468.006 159.75 469.8 161.964 469.8H166.464C168.677 469.8 170.472 468.006 170.472 465.792V428.904C170.472 426.69 168.677 424.896 166.464 424.896Z" fill="black"/>
<path opacity="0.3" d="M200.076 424.896H195.576C193.362 424.896 191.568 426.69 191.568 428.904V465.792C191.568 468.006 193.362 469.8 195.576 469.8H200.076C202.29 469.8 204.084 468.006 204.084 465.792V428.904C204.084 426.69 202.29 424.896 200.076 424.896Z" fill="black"/>
<path opacity="0.3" d="M215.856 307.896C221.124 304.92 223.956 300.48 221.964 293.16C221.964 293.16 194.784 281.436 174.264 276.744C153.744 272.052 149.7 276.744 149.7 276.744L182.16 322.236L215.856 307.896Z" fill="black"/>
<path d="M217.704 309.144C217.704 309.144 216.18 308.1 213.612 306.384C201.492 298.308 166.116 275.184 157.212 274.932C144.9 274.584 144.888 285.192 144.9 293.412C144.9 299.232 149.7 349.812 149.7 349.812" fill="#66E4BE"/>
<path d="M346.656 328.296C346.597 328.186 346.553 328.069 346.524 327.948C346.428 327.684 346.308 327.336 346.164 326.904L344.82 322.884C343.62 319.404 341.88 314.376 339.468 308.256C336.702 301.073 333.496 294.068 329.868 287.28C327.751 283.269 325.264 279.464 322.44 275.916C320.972 274.038 319.266 272.36 317.364 270.924C315.504 269.356 313.122 268.546 310.692 268.656C308.267 268.961 305.936 269.779 303.852 271.056C301.778 272.246 299.803 273.603 297.948 275.112C294.447 277.999 291.143 281.118 288.06 284.448C282.829 290.094 277.886 296.002 273.252 302.148C269.256 307.38 266.184 311.748 264.072 314.736L261.672 318.216L261.048 319.116C260.981 319.225 260.9 319.326 260.808 319.416L260.988 319.08L261.576 318.144C262.092 317.328 262.872 316.128 263.892 314.604C265.944 311.544 268.968 307.152 272.916 301.884C277.516 295.686 282.439 289.734 287.664 284.052C290.75 280.689 294.066 277.546 297.588 274.644C299.473 273.105 301.48 271.72 303.588 270.504C305.76 269.212 308.181 268.394 310.692 268.104C311.985 267.981 313.289 268.166 314.496 268.644C315.661 269.121 316.761 269.742 317.772 270.492C319.714 271.964 321.46 273.678 322.968 275.592C325.802 279.181 328.297 283.026 330.42 287.076C334.032 293.899 337.207 300.945 339.924 308.172C342.324 314.316 343.968 319.368 345.084 322.884C345.648 324.636 346.056 326.004 346.284 326.94C346.404 327.372 346.5 327.732 346.584 327.996C346.619 328.093 346.643 328.194 346.656 328.296Z" fill="#263238"/>
<path d="M367.824 245.028L368.124 245.244L368.964 245.928L372.156 248.592L383.82 258.492L384.6 259.152L383.616 258.876C367.929 254.453 351.722 252.14 335.424 252C316.99 251.811 298.625 254.281 280.896 259.332H280.824H280.752L271.512 253.92L269.112 252.456L268.5 252.072C268.427 252.032 268.358 251.984 268.296 251.928L268.524 252.024L269.172 252.372L271.656 253.74L280.98 259.008H280.824C288.466 256.747 296.246 254.983 304.116 253.728C308.772 252.96 313.716 252.396 319.032 251.94C324.348 251.484 329.832 251.304 335.46 251.412C344.443 251.5 353.407 252.25 362.28 253.656C369.536 254.812 376.714 256.415 383.772 258.456L383.568 258.84L372 248.784L368.88 246.024L368.088 245.292C367.989 245.216 367.9 245.127 367.824 245.028Z" fill="#263238"/>
<g opacity="0.2">
<path opacity="0.2" d="M300.18 402.732C299.904 404.448 298.14 405.732 295.632 406.596C292.606 407.538 289.453 408.004 286.284 407.976C283.113 408.059 279.948 407.654 276.9 406.776C274.38 405.972 272.592 404.724 272.28 403.02C271.968 401.316 273.252 399.492 275.76 398.016C278.975 396.366 282.53 395.487 286.143 395.448C289.757 395.408 293.33 396.209 296.58 397.788C299.124 399.228 300.456 401.04 300.18 402.732Z" fill="white"/>
</g>
<path d="M221.58 408.924C221.456 408.871 221.339 408.802 221.232 408.72L220.272 408.072L218.7 407.016C218.064 406.632 217.308 406.236 216.456 405.756C211.614 403.211 206.402 401.442 201.012 400.512C197.292 399.88 193.529 399.527 189.756 399.456C185.422 399.43 181.092 399.747 176.808 400.404C166.964 401.854 157.574 405.509 149.34 411.096C147.227 412.593 145.222 414.237 143.34 416.016C141.504 417.752 139.803 419.625 138.252 421.62C135.319 425.394 132.958 429.579 131.244 434.04C128.505 441.695 127.973 449.965 129.708 457.908C130.422 460.935 131.481 463.87 132.864 466.656C133.955 468.738 135.236 470.715 136.692 472.56L138.36 474.528L139.704 475.848L140.52 476.664C140.7 476.856 140.796 476.952 140.784 476.964C140.674 476.893 140.573 476.808 140.484 476.712L139.608 475.932L138.216 474.648L136.512 472.716C135.009 470.882 133.683 468.909 132.552 466.824C131.126 464.024 130.031 461.069 129.288 458.016C127.459 449.985 127.95 441.599 130.704 433.836C131.541 431.623 132.544 429.477 133.704 427.416C134.898 425.258 136.258 423.195 137.772 421.248C139.341 419.228 141.058 417.327 142.908 415.56C144.829 413.759 146.874 412.095 149.028 410.58C157.338 404.935 166.827 401.262 176.772 399.84C181.084 399.186 185.443 398.885 189.804 398.94C193.603 399.032 197.39 399.409 201.132 400.068C206.543 401.072 211.758 402.94 216.576 405.6C217.416 406.104 218.172 406.524 218.808 406.92L220.344 408.036L221.28 408.732C221.484 408.828 221.592 408.912 221.58 408.924Z" fill="#263238"/>
<path d="M170.112 429.096C170.219 429.726 170.268 430.365 170.256 431.004C170.256 432.348 170.388 434.1 170.472 436.224C170.664 440.616 171.024 446.7 171.18 453.42C171.18 455.112 171.18 456.756 171.18 458.34C171.21 459.883 171.097 461.426 170.844 462.948C170.673 464.27 170.202 465.535 169.465 466.646C168.729 467.757 167.747 468.684 166.596 469.356C165.788 469.766 164.886 469.957 163.981 469.911C163.076 469.864 162.198 469.582 161.436 469.092C161.031 468.824 160.684 468.477 160.416 468.072C160.314 467.939 160.237 467.788 160.188 467.628C160.579 468.117 161.045 468.543 161.568 468.888C162.298 469.301 163.119 469.525 163.957 469.54C164.796 469.555 165.624 469.359 166.368 468.972C167.433 468.306 168.336 467.409 169.009 466.348C169.682 465.286 170.108 464.088 170.256 462.84C170.483 461.351 170.579 459.846 170.544 458.34C170.544 456.756 170.544 455.112 170.484 453.444C170.328 446.724 170.028 440.64 169.956 436.236C169.956 434.028 169.956 432.24 169.956 431.004C169.963 430.365 170.015 429.728 170.112 429.096Z" fill="#263238"/>
<path d="M203.292 429.096C203.383 429.728 203.427 430.366 203.424 431.004C203.424 432.348 203.556 434.1 203.64 436.224C203.832 440.616 204.192 446.7 204.36 453.42C204.36 455.112 204.36 456.756 204.36 458.34C204.38 459.883 204.264 461.425 204.012 462.948C203.843 464.27 203.372 465.536 202.635 466.647C201.899 467.759 200.916 468.685 199.764 469.356C198.955 469.765 198.054 469.955 197.149 469.909C196.244 469.863 195.367 469.581 194.604 469.092C194.203 468.82 193.856 468.473 193.584 468.072C193.404 467.796 193.344 467.628 193.368 467.628C193.753 468.119 194.215 468.544 194.736 468.888C195.466 469.301 196.287 469.525 197.125 469.54C197.964 469.555 198.792 469.359 199.536 468.972C200.601 468.306 201.504 467.409 202.177 466.348C202.85 465.287 203.276 464.088 203.424 462.84C203.655 461.352 203.755 459.846 203.724 458.34C203.724 456.756 203.724 455.112 203.664 453.444C203.496 446.724 203.208 440.64 203.136 436.236C203.136 434.028 203.136 432.24 203.136 431.004C203.127 430.365 203.18 429.726 203.292 429.096Z" fill="#263238"/>
<path d="M244.488 457.764C244.421 458.046 244.333 458.323 244.224 458.592C244.02 459.12 243.792 459.924 243.336 460.896C242.149 463.701 240.681 466.378 238.956 468.888C236.401 472.616 233.416 476.032 230.064 479.064C228.079 480.85 225.987 482.513 223.8 484.044C221.437 485.661 218.968 487.117 216.408 488.4C211.467 490.931 206.225 492.826 200.808 494.04C196.386 494.977 191.876 495.432 187.356 495.396C183.516 495.396 180.408 495.156 178.272 495.012L175.8 494.808C175.513 494.803 175.227 494.767 174.948 494.7C175.235 494.671 175.525 494.671 175.812 494.7L178.284 494.772C180.42 494.856 183.528 495 187.356 494.964C191.84 494.943 196.308 494.448 200.688 493.488C206.032 492.251 211.202 490.361 216.084 487.86C218.622 486.591 221.072 485.152 223.416 483.552C225.582 482.038 227.662 480.404 229.644 478.656C232.984 475.667 235.975 472.31 238.56 468.648C240.311 466.173 241.837 463.547 243.12 460.8C243.6 459.852 243.864 459.06 244.116 458.544C244.208 458.27 244.333 458.008 244.488 457.764Z" fill="#263238"/>
<path d="M169.392 427.764C169.147 427.343 168.87 426.942 168.564 426.564C168.127 426.086 167.597 425.701 167.008 425.433C166.418 425.165 165.78 425.019 165.132 425.004C164.176 424.997 163.23 425.196 162.359 425.587C161.487 425.978 160.71 426.553 160.08 427.272C159.323 428.108 158.794 429.125 158.544 430.224C158.275 431.425 158.154 432.654 158.184 433.884C158.184 439.044 158.244 443.736 158.184 447.084C158.184 448.668 158.184 450.012 158.184 451.092C158.2 451.582 158.168 452.072 158.088 452.556C157.98 452.076 157.932 451.584 157.944 451.092C157.944 450.012 157.86 448.692 157.8 447.084C157.716 443.7 157.62 439.02 157.584 433.884C157.553 432.601 157.682 431.319 157.968 430.068C158.263 428.879 158.849 427.783 159.672 426.876C160.366 426.109 161.22 425.505 162.174 425.107C163.129 424.708 164.159 424.526 165.192 424.572C165.888 424.607 166.568 424.789 167.188 425.105C167.809 425.422 168.355 425.866 168.792 426.408C169.019 426.701 169.205 427.024 169.344 427.368C169.38 427.62 169.416 427.752 169.392 427.764Z" fill="white"/>
<path d="M191.376 430.524C191.544 430.524 191.688 436.848 191.688 444.648C191.688 452.448 191.544 458.784 191.376 458.784C191.208 458.784 191.064 452.46 191.064 444.648C191.064 436.836 191.208 430.524 191.376 430.524Z" fill="white"/>
<path d="M181.308 403.284C181.068 403.337 180.822 403.357 180.576 403.344C180.084 403.344 179.376 403.344 178.464 403.344C175.879 403.44 173.305 403.721 170.76 404.184C161.075 405.987 152.12 410.556 144.976 417.338C137.832 424.12 132.804 432.826 130.5 442.404C130.26 443.28 130.152 443.988 130.032 444.456C129.99 444.699 129.922 444.936 129.828 445.164C129.82 444.918 129.844 444.672 129.9 444.432C129.984 443.952 130.056 443.232 130.26 442.344C130.784 439.794 131.523 437.293 132.468 434.868C135.552 426.787 140.707 419.658 147.415 414.197C154.123 408.735 162.149 405.133 170.688 403.752C173.253 403.317 175.85 403.1 178.452 403.104C179.376 403.104 180.096 403.164 180.576 403.176C180.823 403.189 181.068 403.225 181.308 403.284Z" fill="white"/>
<path d="M149.928 342.156C149.89 342.393 149.817 342.624 149.712 342.84L148.968 344.736C148.632 345.552 148.236 346.56 147.768 347.748C147.3 348.936 146.82 350.268 146.364 351.78C145.908 353.292 145.332 354.924 144.852 356.724C144.372 358.524 143.88 360.444 143.388 362.472C141.383 371.316 140.44 380.368 140.58 389.436C140.652 391.524 140.676 393.516 140.832 395.364C140.988 397.212 141.108 398.964 141.288 400.512C141.468 402.06 141.66 403.5 141.828 404.748C141.996 405.996 142.176 407.064 142.332 407.928C142.488 408.792 142.584 409.416 142.668 409.944C142.724 410.176 142.748 410.414 142.74 410.652C142.649 410.432 142.585 410.203 142.548 409.968L142.092 407.976C141.9 407.112 141.672 406.044 141.48 404.808C141.288 403.572 141.012 402.144 140.844 400.572C140.676 399 140.436 397.272 140.316 395.4C140.196 393.528 140.088 391.548 140.004 389.4C139.824 380.315 140.792 371.243 142.884 362.4C143.4 360.36 143.856 358.428 144.42 356.64C144.984 354.852 145.476 353.196 146.004 351.696C146.532 350.196 147.048 348.864 147.492 347.688C147.936 346.512 148.38 345.504 148.692 344.7C149.004 343.896 149.316 343.332 149.544 342.852C149.642 342.604 149.771 342.371 149.928 342.156Z" fill="white"/>
<path d="M151.728 279.756C151.728 279.756 151.236 280.404 150.528 281.664C149.543 283.459 148.865 285.406 148.524 287.424C148.03 290.427 147.781 293.465 147.78 296.508C147.684 299.952 147.672 303.708 147.78 307.716C147.972 315.672 148.608 322.86 149.208 328.032C149.532 330.552 149.784 332.616 149.976 334.164L150.192 335.832C150.208 336.028 150.208 336.224 150.192 336.42C150.107 336.243 150.055 336.052 150.036 335.856C149.94 335.4 149.832 334.86 149.7 334.2C149.436 332.772 149.1 330.684 148.74 328.092C147.821 321.327 147.28 314.517 147.12 307.692C147.024 303.708 147.12 299.904 147.12 296.448C147.141 293.376 147.438 290.311 148.008 287.292C148.396 285.243 149.147 283.28 150.228 281.496C150.528 281.018 150.865 280.565 151.236 280.14C151.56 279.888 151.704 279.744 151.728 279.756Z" fill="white"/>
<path d="M268.536 242.16C268.286 242.278 268.029 242.382 267.768 242.472L265.536 243.264L257.316 246.084C248.25 249.111 239.35 252.611 230.652 256.572C221.961 260.551 213.759 265.52 206.208 271.38C203.34 273.66 201.132 275.64 199.644 277.056C198.888 277.74 198.336 278.316 197.94 278.688C197.753 278.891 197.544 279.073 197.316 279.228C197.474 279.005 197.65 278.796 197.844 278.604C198.216 278.208 198.744 277.596 199.476 276.876C201.526 274.819 203.681 272.868 205.932 271.032C213.441 265.04 221.659 259.994 230.4 256.008C239.114 252.031 248.058 248.577 257.184 245.664C260.676 244.524 263.508 243.624 265.476 243.024L267.744 242.352C268 242.26 268.266 242.195 268.536 242.16Z" fill="white"/>
<path d="M310.296 271.908C310.296 271.908 310.128 272.076 309.756 272.34L308.16 273.468C306.768 274.428 304.776 275.868 302.352 277.692C299.928 279.516 297.12 281.784 294.096 284.4C291.072 287.016 287.868 290.064 284.652 293.376C281.436 296.688 278.556 300.048 276.024 303.156C273.492 306.264 271.356 309.156 269.628 311.664C267.9 314.172 266.532 316.188 265.632 317.664L264.564 319.296C264.447 319.493 264.31 319.678 264.156 319.848C264.225 319.63 264.326 319.424 264.456 319.236C264.708 318.78 265.032 318.216 265.428 317.532C266.268 316.056 267.576 313.932 269.268 311.448C270.96 308.964 273.084 305.988 275.58 302.832C278.076 299.676 280.992 296.34 284.196 292.98C287.4 289.62 290.676 286.632 293.712 284.004C296.748 281.376 299.628 279.204 302.112 277.368C304.596 275.532 306.612 274.2 308.052 273.3L309.72 272.268C309.9 272.129 310.093 272.009 310.296 271.908Z" fill="white"/>
<path d="M495.24 355.392C495.828 356.348 496.307 357.366 496.668 358.428C498.638 363.441 499.969 368.682 500.628 374.028C500.815 375.13 500.879 376.248 500.82 377.364C500.52 376.291 500.307 375.195 500.184 374.088C499.836 372.072 499.308 369.288 498.54 366.252C497.772 363.216 496.908 360.504 496.248 358.56C495.833 357.531 495.496 356.472 495.24 355.392Z" fill="white"/>
<path d="M466.536 492.948C466.536 492.948 466.332 493.116 465.936 493.404L464.172 494.604L461.292 496.632L459.456 498L457.308 499.392C448.774 505.019 439.887 510.093 430.704 514.584C427.8 516 424.704 517.416 421.5 518.88L416.52 520.992L414 522L411.36 523.008L405.936 525.084L400.272 527.04C398.364 527.736 396.396 528.324 394.392 528.936C392.388 529.548 390.396 530.22 388.32 530.748C379.705 533.183 370.964 535.15 362.136 536.64C352.661 538.291 343.089 539.321 333.48 539.724C323.871 540.141 314.244 539.84 304.68 538.824L301.212 538.488C300.072 538.368 298.932 538.176 297.804 538.02L291.072 537.072L284.532 535.872L281.328 535.26L278.172 534.54C263.345 531.291 248.875 526.589 234.972 520.5C225.592 516.458 216.564 511.642 207.984 506.1C204.888 504.204 202.692 502.5 201.12 501.372L199.38 500.088C198.984 499.8 198.792 499.632 198.792 499.632L199.416 500.04L201.204 501.24C202.788 502.296 205.008 504.012 208.116 505.872C216.73 511.343 225.772 516.11 235.152 520.128C249.034 526.132 263.466 530.778 278.244 534L281.388 534.708L284.592 535.308L291.12 536.508L297.828 537.444C298.956 537.6 300.096 537.792 301.236 537.9L304.692 538.236C314.232 539.248 323.835 539.545 333.42 539.124C343.001 538.729 352.545 537.706 361.992 536.064C370.801 534.578 379.525 532.628 388.128 530.22C390.204 529.692 392.196 529.02 394.2 528.42C396.204 527.82 398.148 527.22 400.056 526.548L405.72 524.604L411.132 522.552L413.772 521.544L416.328 520.476L421.308 518.388C424.512 516.936 427.608 515.544 430.512 514.14C439.703 509.706 448.615 504.717 457.2 499.2C457.952 498.704 458.672 498.248 459.36 497.832L461.22 496.56L464.124 494.592L465.924 493.392L466.536 492.948Z" fill="#263238"/>
<path d="M414.84 505.8L438.96 567.468H455.448L459.036 562.104L463.272 567.468H469.092L471.264 469.728L414.84 505.8Z" fill="#66E4BE"/>
<path d="M263.34 514.476L283.74 567.468H302.484L306.312 561.336L310.008 567.468H314.652C314.652 567.468 316.692 507.684 314.652 505.992C312.612 504.3 263.34 514.476 263.34 514.476Z" fill="#66E4BE"/>
<path d="M501.468 396C501.483 396.12 501.483 396.241 501.468 396.36C501.468 396.624 501.468 396.96 501.384 397.392C501.288 398.34 501.168 399.66 501.012 401.34C500.928 402.204 500.832 403.164 500.724 404.196C500.616 405.228 500.376 406.368 500.184 407.58C499.752 409.98 499.404 412.764 498.624 415.752C498.276 417.264 497.904 418.836 497.52 420.48C497.136 422.124 496.56 423.78 496.056 425.52C495.096 429.024 493.656 432.648 492.264 436.476C485.746 453.006 476.198 468.174 464.112 481.2C461.256 484.128 458.616 486.972 455.856 489.348C454.512 490.548 453.252 491.748 451.944 492.852L448.176 495.9C445.776 497.892 443.46 499.404 441.468 500.832C440.46 501.54 439.536 502.212 438.66 502.788L436.2 504.276L432.804 506.316L431.904 506.832L431.592 507C431.592 507 431.676 506.916 431.868 506.784L432.732 506.208L436.08 504.072L438.48 502.536C439.356 501.948 440.256 501.264 441.252 500.556C443.22 499.092 445.548 497.556 447.888 495.552L451.62 492.492C452.916 491.424 454.152 490.188 455.496 488.976C458.22 486.576 460.848 483.744 463.668 480.816C475.657 467.798 485.165 452.698 491.724 436.26C493.14 432.456 494.568 428.856 495.54 425.364C496.056 423.636 496.632 421.98 497.04 420.348C497.448 418.716 497.82 417.156 498.24 415.656C499.056 412.68 499.44 409.92 499.884 407.52C500.1 406.32 500.328 405.192 500.484 404.16C500.64 403.128 500.712 402.18 500.82 401.316C501.024 399.636 501.192 398.316 501.3 397.38C501.36 396.96 501.408 396.624 501.444 396.348C501.438 396.231 501.446 396.115 501.468 396Z" fill="white"/>
<g opacity="0.2">
<path opacity="0.2" d="M475.38 344.016C469.908 330.444 457.968 317.616 444.18 312.036C441.552 310.995 438.715 310.594 435.902 310.865C433.089 311.136 430.38 312.072 428 313.596C425.619 315.12 423.635 317.187 422.211 319.628C420.787 322.069 419.963 324.814 419.808 327.636C419.814 327.724 419.814 327.812 419.808 327.9C419.376 336.588 422.796 345.012 427.008 352.644C431.22 360.276 436.2 367.5 439.452 375.564C444.811 389.021 444.982 403.988 439.932 417.564C436.716 426.108 431.388 435.216 436.212 443.724C439.38 449.316 445.752 452.064 452.148 451.488C464.4 450.372 470.76 439.308 476.568 429.252C481.236 421.164 485.088 408.588 485.304 399.096C485.951 380.239 482.568 361.461 475.38 344.016Z" fill="white"/>
</g>
<path d="M289.656 382.344C289.212 382.464 288.456 380.676 287.328 378.084C286.68 376.643 285.8 375.317 284.724 374.16C283.57 372.864 281.955 372.071 280.224 371.952C278.459 371.974 276.758 372.62 275.424 373.776C274.256 374.782 273.294 376.004 272.592 377.376C271.392 379.86 270.852 381.696 270.384 381.612C269.916 381.528 269.664 379.644 270.54 376.548C271.09 374.68 272.101 372.979 273.48 371.604C274.373 370.709 275.433 369.999 276.601 369.516C277.768 369.032 279.02 368.783 280.284 368.784C281.644 368.824 282.972 369.203 284.148 369.888C285.181 370.489 286.1 371.269 286.86 372.192C288.065 373.688 288.929 375.428 289.392 377.292C290.136 380.4 290.04 382.236 289.656 382.344Z" fill="#263238"/>
<path d="M198.516 375.012C198.516 376.718 198.01 378.387 197.062 379.805C196.114 381.224 194.766 382.33 193.19 382.983C191.613 383.636 189.878 383.807 188.205 383.474C186.531 383.141 184.994 382.32 183.787 381.113C182.58 379.906 181.759 378.369 181.426 376.695C181.093 375.022 181.264 373.287 181.917 371.71C182.57 370.134 183.676 368.786 185.095 367.838C186.513 366.89 188.182 366.384 189.888 366.384C192.176 366.384 194.371 367.293 195.989 368.911C197.607 370.529 198.516 372.724 198.516 375.012Z" fill="#263238"/>
<path d="M472.548 302.844C472.329 302.65 472.132 302.433 471.96 302.196L470.4 300.264C469.704 299.412 468.864 298.38 467.832 297.228C466.8 296.076 465.684 294.696 464.34 293.28C462.996 291.864 461.58 290.256 459.96 288.636C458.34 287.016 456.588 285.288 454.74 283.5C450.96 279.984 446.676 276.3 441.972 272.616C437.268 268.932 432.564 265.788 428.208 263.016C426 261.672 423.924 260.364 421.92 259.26C419.916 258.156 418.044 257.1 416.316 256.2C414.588 255.3 413.004 254.52 411.612 253.8C410.22 253.08 409.02 252.54 408.012 252.096L405.732 251.028C405.457 250.917 405.196 250.776 404.952 250.608C405.235 250.687 405.512 250.787 405.78 250.908L408.108 251.868C409.116 252.288 410.352 252.816 411.708 253.488C413.064 254.16 414.732 254.868 416.508 255.78C418.284 256.692 420.108 257.64 422.16 258.792C424.212 259.944 426.276 261.192 428.496 262.5C432.888 265.248 437.604 268.44 442.344 272.1C447.084 275.76 451.356 279.504 455.124 283.056C456.972 284.868 458.724 286.572 460.32 288.252C461.916 289.932 463.368 291.492 464.664 292.956C465.96 294.42 467.064 295.788 468.084 296.976C469.104 298.164 469.92 299.22 470.568 300.096L472.092 302.1C472.272 302.33 472.425 302.579 472.548 302.844Z" fill="white"/>
<path d="M381.828 264.072C381.508 264.011 381.194 263.919 380.892 263.796L378.264 262.896C377.064 262.476 375.732 261.996 374.076 261.516C372.42 261.036 370.584 260.388 368.484 259.872L365.208 259.008C364.068 258.708 362.808 258.48 361.608 258.192C359.136 257.604 356.46 257.172 353.652 256.668C347.532 255.723 341.361 255.142 335.172 254.928C328.98 254.779 322.784 255.007 316.62 255.612C313.788 255.948 311.076 256.224 308.58 256.668C307.38 256.884 306.108 257.04 304.98 257.28L301.656 257.952C299.532 258.348 297.648 258.864 295.98 259.272C294.312 259.68 292.884 260.052 291.72 260.4L289.044 261.156C288.733 261.252 288.417 261.328 288.096 261.384C288.386 261.235 288.692 261.118 289.008 261.036L291.648 260.172C292.848 259.788 294.216 259.344 295.884 258.972C297.552 258.6 299.484 257.988 301.56 257.568L304.884 256.848C306.084 256.608 307.284 256.428 308.484 256.212C310.992 255.732 313.704 255.432 316.548 255.084C328.939 253.748 341.454 254.107 353.748 256.152C356.568 256.668 359.256 257.124 361.74 257.736C362.94 258.036 364.14 258.276 365.34 258.588L368.616 259.5C370.716 260.04 372.564 260.7 374.196 261.228C375.828 261.756 377.232 262.26 378.36 262.716L380.952 263.736C381.252 263.825 381.545 263.937 381.828 264.072Z" fill="white"/>
<path d="M429.48 518.4C430.605 518.942 431.61 519.705 432.434 520.643C433.259 521.581 433.886 522.675 434.28 523.86C435.049 526.24 435.267 528.764 434.916 531.24C434.376 536.04 431.64 540.84 428.712 544.716C424.668 541.188 423.744 535.044 423.468 531.888C423.036 526.92 425.268 517.656 429.468 518.4" fill="#455A64"/>
<path d="M433.428 552.648C433.152 551.275 433.244 549.854 433.695 548.528C434.146 547.202 434.94 546.019 435.996 545.1C437.068 544.208 438.306 543.536 439.638 543.124C440.971 542.712 442.372 542.568 443.76 542.7C444.406 542.692 445.045 542.825 445.634 543.091C446.223 543.356 446.746 543.747 447.168 544.236C447.475 544.756 447.637 545.348 447.637 545.952C447.637 546.556 447.475 547.148 447.168 547.668C446.559 548.716 445.68 549.582 444.624 550.176C441.132 552.372 437.34 553.86 433.38 552.672" fill="#455A64"/>
<path d="M428.256 567.348C428.273 567.028 428.322 566.711 428.4 566.4C428.52 565.716 428.688 564.816 428.88 563.736C429.332 560.771 430.26 557.898 431.628 555.228C433.058 552.565 435.165 550.326 437.736 548.736C438.521 548.274 439.359 547.907 440.232 547.644C440.532 547.536 440.784 547.5 440.94 547.452H441.204C440.043 547.85 438.925 548.365 437.868 548.988C435.411 550.589 433.394 552.78 432 555.36C430.651 558.006 429.701 560.836 429.18 563.76C428.94 564.876 428.748 565.788 428.592 566.412C428.503 566.732 428.39 567.045 428.256 567.348Z" fill="#263238"/>
<path d="M428.4 525.6C428.421 525.743 428.421 525.889 428.4 526.032C428.4 526.344 428.4 526.764 428.472 527.232C428.472 528.3 428.592 529.86 428.664 531.78C428.784 535.62 428.88 540.936 428.856 546.804C428.832 552.672 428.688 557.988 428.532 561.828C428.448 563.748 428.376 565.296 428.304 566.376C428.304 566.88 428.304 567.288 428.22 567.576C428.232 567.72 428.232 567.864 428.22 568.008C428.202 567.865 428.202 567.719 428.22 567.576C428.22 567.252 428.22 566.844 428.22 566.376C428.22 565.26 428.22 563.724 428.328 561.828C428.424 557.988 428.532 552.684 428.556 546.816C428.58 540.948 428.556 535.644 428.46 531.804C428.46 529.908 428.46 528.36 428.388 527.244C428.388 526.74 428.388 526.332 428.388 526.044C428.381 525.896 428.385 525.747 428.4 525.6Z" fill="#263238"/>
<path d="M426.444 555.6C425.956 552.694 424.783 549.946 423.021 547.584C421.26 545.222 418.962 543.313 416.316 542.016C414.96 541.368 413.196 540.948 412.092 541.944C410.988 542.94 411.228 544.752 411.768 546.156C412.956 549.052 414.975 551.531 417.569 553.282C420.164 555.033 423.218 555.977 426.348 555.996" fill="#455A64"/>
<path d="M416.964 546.528C417.264 546.621 417.554 546.746 417.828 546.9C418.157 547.054 418.478 547.227 418.788 547.416C419.201 547.652 419.601 547.908 419.988 548.184C420.479 548.514 420.952 548.87 421.404 549.252C421.931 549.678 422.432 550.135 422.904 550.62C423.986 551.708 424.94 552.915 425.748 554.22C426.543 555.556 427.176 556.982 427.632 558.468C427.999 559.68 428.241 560.926 428.352 562.188C428.4 562.67 428.42 563.155 428.412 563.64C428.438 564.008 428.438 564.376 428.412 564.744C428.406 565.055 428.37 565.364 428.304 565.668C428.22 565.668 428.364 564.336 428.124 562.212C428.067 561.635 427.975 561.062 427.848 560.496C427.718 559.843 427.55 559.198 427.344 558.564C426.876 557.111 426.248 555.715 425.472 554.4C424.677 553.106 423.748 551.899 422.7 550.8C422.196 550.308 421.728 549.828 421.236 549.432C420.799 549.048 420.342 548.688 419.868 548.352C418.152 547.2 416.928 546.588 416.964 546.528Z" fill="#263238"/>
<path d="M40.416 520.296C41.6434 520.542 42.808 521.035 43.8393 521.745C44.8706 522.454 45.7472 523.366 46.416 524.424C47.7436 526.549 48.5647 528.951 48.816 531.444C49.452 536.244 47.988 541.584 46.068 546.012C41.268 543.612 38.868 537.828 37.872 534.84C36.24 530.124 36.168 520.596 40.416 520.296Z" fill="#455A64"/>
<path d="M52.536 552.552C51.9386 551.289 51.685 549.89 51.8009 548.497C51.9168 547.105 52.398 545.767 53.196 544.62C54.0154 543.488 55.0517 542.531 56.2445 541.804C57.4373 541.077 58.7629 540.594 60.144 540.384C60.769 540.218 61.4227 540.192 62.0591 540.306C62.6956 540.42 63.2994 540.672 63.828 541.044C64.2565 541.47 64.5644 542.002 64.7204 542.586C64.8764 543.17 64.8749 543.785 64.716 544.368C64.3672 545.529 63.722 546.58 62.844 547.416C59.988 550.392 56.664 552.744 52.536 552.552Z" fill="#455A64"/>
<path d="M51.084 568.08C51.0182 567.752 50.982 567.419 50.976 567.084C50.976 566.388 50.88 565.476 50.808 564.384C50.5263 561.399 50.733 558.387 51.42 555.468C52.1497 552.535 53.6494 549.851 55.764 547.692C56.4121 547.05 57.133 546.486 57.912 546.012C58.188 545.844 58.416 545.748 58.572 545.664C58.728 545.58 58.8 545.556 58.812 545.568C57.7769 546.227 56.8154 546.996 55.944 547.86C53.9113 550.041 52.4697 552.705 51.756 555.6C51.0869 558.489 50.8523 561.462 51.06 564.42C51.06 565.56 51.12 566.496 51.12 567.132C51.1355 567.449 51.1235 567.766 51.084 568.08Z" fill="#263238"/>
<path d="M41.112 527.544C41.1735 527.676 41.2256 527.813 41.268 527.952C41.364 528.252 41.484 528.648 41.64 529.152C41.952 530.184 42.384 531.684 42.912 533.532C43.968 537.228 45.312 542.352 46.752 548.052C48.192 553.752 49.296 558.948 50.076 562.704C50.46 564.588 50.76 566.124 50.952 567.18C51.048 567.672 51.12 568.08 51.18 568.38C51.1905 568.524 51.1905 568.668 51.18 568.812C51.1287 568.675 51.0886 568.535 51.06 568.392L50.772 567.192C50.532 566.1 50.196 564.588 49.776 562.752C48.936 558.996 47.76 553.824 46.356 548.124C44.952 542.424 43.62 537.324 42.624 533.58C42.144 531.756 41.748 530.268 41.424 529.188C41.292 528.696 41.196 528.288 41.112 527.988C41.1 527.84 41.1 527.692 41.112 527.544Z" fill="#263238"/>
<path d="M46.464 557.076C45.2861 554.375 43.4822 551.994 41.2014 550.128C38.9207 548.263 36.2287 546.967 33.348 546.348C31.884 546.048 30.072 546.072 29.232 547.308C28.392 548.544 29.088 550.248 29.952 551.472C31.8059 553.992 34.3646 555.907 37.3053 556.975C40.246 558.042 43.4371 558.216 46.476 557.472" fill="#455A64"/>
<path d="M35.0881 550.608C35.3973 550.644 35.7026 550.708 36.0001 550.8C36.3568 550.868 36.7094 550.956 37.0561 551.064C37.5276 551.192 37.9922 551.344 38.4481 551.52C39.0004 551.718 39.5412 551.946 40.0681 552.204C40.681 552.491 41.2779 552.812 41.8561 553.164C44.5281 554.776 46.7651 557.017 48.3721 559.692C48.7143 560.276 49.0267 560.877 49.3081 561.492C49.5841 562.068 49.7761 562.62 49.9681 563.136C50.1298 563.592 50.266 564.057 50.3761 564.528C50.4833 564.877 50.5636 565.234 50.6161 565.596C50.6919 565.902 50.7322 566.216 50.7361 566.532C50.6641 566.532 50.4721 565.224 49.7281 563.22C49.5301 562.672 49.3018 562.135 49.0441 561.612C48.7921 561.048 48.4441 560.412 48.0961 559.86C47.2796 558.565 46.3305 557.358 45.2641 556.26C44.1685 555.19 42.9616 554.241 41.6641 553.428C41.0641 553.068 40.4641 552.72 39.9241 552.456C39.4054 552.187 38.8726 551.947 38.3281 551.736C36.3841 550.92 35.0641 550.68 35.0881 550.608Z" fill="#263238"/>
</svg>
